<?xml version="1.0" encoding="iso-8859-1"?>
<!-- Generator: Adobe Illustrator 19.0.0, SVG Export Plug-In . SVG Version: 6.00 Build 0)  -->
<svg version="1.1" id="Layer_1" xmlns="http://www.w3.org/2000/svg" xmlns:xlink="http://www.w3.org/1999/xlink" x="0px" y="0px"
	 viewBox="0 0 408.759 408.759" style="enable-background:new 0 0 408.759 408.759;" xml:space="preserve">
<g>
	<path style="fill:#FFBE00;" d="M204.385,408.759c-58.121,0-113.675-24.869-152.418-68.227
		C18.46,303.057,0.005,254.703,0.005,204.379C0.005,91.683,91.689,0,204.385,0c50.317,0,98.674,18.453,136.163,51.964
		c43.348,38.763,68.207,94.314,68.207,152.415C408.755,317.074,317.075,408.759,204.385,408.759"/>
	<path style="fill:#F4502A;" d="M377.759,204.377c0,1.33-0.02,2.67-0.05,3.989c-0.371,16.66-3.101,32.74-7.861,47.911
		c-20.391,65.089-78.11,113.66-148.079,120.61c-5.721,0.58-11.51,0.87-17.38,0.87c-5.159,0-10.26-0.231-15.301-0.67
		c-45.209-3.95-85.44-25.249-114-57.21c-0.26-0.29-0.519-0.589-0.79-0.879c-26.95-30.562-43.289-70.679-43.289-114.62
		c0-95.751,77.619-173.381,173.38-173.381c43.95,0,84.069,16.35,114.629,43.29c0.29,0.27,0.591,0.53,0.881,0.791
		C355.409,106.836,377.759,152.987,377.759,204.377"/>
	<path style="fill:#C29100;" d="M88.98,333.762l0.002,0.002L88.98,333.762 M74.309,319.009c4.56,5.168,9.426,10.066,14.565,14.659
		c-4.85-4.337-9.451-8.94-13.786-13.792C74.831,319.59,74.576,319.295,74.309,319.009 M73.182,317.718
		c0.014,0.016,0.027,0.031,0.041,0.047C73.21,317.75,73.195,317.733,73.182,317.718 M72.792,317.266
		c0.049,0.057,0.093,0.108,0.142,0.165C72.885,317.375,72.84,317.322,72.792,317.266 M72.43,316.843
		c0.084,0.099,0.169,0.198,0.253,0.296C72.598,317.041,72.514,316.941,72.43,316.843 M137.478,44.378
		C74.942,70.559,31.004,132.334,31.004,204.37c0,42.907,15.581,82.173,41.4,112.443c-25.82-30.277-41.395-69.533-41.395-112.436
		C31.009,132.341,74.941,70.562,137.478,44.378"/>
	<path style="fill:#BA3D20;" d="M204.383,30.999c-23.718,0-46.317,4.76-66.905,13.379C74.941,70.562,31.009,132.341,31.009,204.377
		c0,42.902,15.574,82.158,41.395,112.436c0.01,0.012,0.016,0.019,0.026,0.03c0.084,0.099,0.169,0.198,0.253,0.296
		c0.035,0.041,0.074,0.086,0.109,0.127c0.049,0.057,0.093,0.109,0.142,0.165c0.082,0.096,0.166,0.192,0.248,0.288
		c0.013,0.015,0.028,0.032,0.041,0.047c0.36,0.416,0.723,0.831,1.086,1.243c0.267,0.286,0.522,0.581,0.779,0.867
		c4.335,4.852,8.937,9.455,13.786,13.792c0.036,0.032,0.07,0.063,0.106,0.094l0.002,0.002c1.148,1.024,2.308,2.032,3.483,3.025
		c-25.531-30.2-40.921-69.239-40.921-111.879c0-95.751,77.621-173.371,173.381-173.371c42.629,0,81.68,15.39,111.869,40.921
		C305.004,54.869,257.484,30.999,204.383,30.999"/>
	<path style="fill:#BA3D20;" d="M228.378,98.877v143.508v51.491h-47.999v-99.49l-26.501-26.501l-47.999,125.991l83.209,83.209
		c5.041,0.439,10.142,0.67,15.301,0.67c5.87,0,11.66-0.29,17.38-0.87c69.969-6.951,127.688-55.521,148.079-120.61
		c4.76-15.17,7.49-31.25,7.861-47.911l-74.831-74.829v39.85v120.49h-47.999v-160.34h8.153L228.378,98.877"/>
	<rect x="105.878" y="167.876" style="fill:#FFBE00;" width="48" height="126"/>
	<polyline style="fill:#FFFFFF;" points="302.878,133.537 302.878,293.877 254.879,293.877 254.879,133.537 302.878,133.537 	"/>
	<polyline style="fill:#1CA4BA;" points="228.378,98.877 228.378,293.877 180.379,293.877 180.379,98.877 228.378,98.877 	"/>
	<polyline style="fill:#C2C2C2;" points="263.038,133.537 263.032,133.537 254.879,133.537 254.879,293.877 302.878,293.877 
		302.878,173.387 263.038,133.537 	"/>
	<polyline style="fill:#157D8E;" points="180.379,194.377 180.379,293.877 228.378,293.877 228.378,242.386 180.379,194.377 	"/>
</g>
<g>
</g>
<g>
</g>
<g>
</g>
<g>
</g>
<g>
</g>
<g>
</g>
<g>
</g>
<g>
</g>
<g>
</g>
<g>
</g>
<g>
</g>
<g>
</g>
<g>
</g>
<g>
</g>
<g>
</g>
</svg>
