<?xml version="1.0" encoding="utf-8" standalone="no"?>
<!DOCTYPE svg PUBLIC "-//W3C//DTD SVG 1.1//EN"
  "http://www.w3.org/Graphics/SVG/1.1/DTD/svg11.dtd">
<!-- Created with matplotlib (http://matplotlib.org/) -->
<svg height="396pt" version="1.1" viewBox="0 0 576 396" width="576pt" xmlns="http://www.w3.org/2000/svg" xmlns:xlink="http://www.w3.org/1999/xlink">
 <defs>
  <style type="text/css">
*{stroke-linecap:butt;stroke-linejoin:round;stroke-miterlimit:100000;}
  </style>
 </defs>
 <g id="figure_1">
  <g id="patch_1">
   <path d="M 0 396 
L 576 396 
L 576 0 
L 0 0 
z
" style="fill:#ffffff;"/>
  </g>
  <g id="axes_1">
   <g id="patch_2">
    <path d="M 72 316.8 
L 518.4 316.8 
L 518.4 39.6 
L 72 39.6 
z
" style="fill:#eaeaf2;"/>
   </g>
   <g id="matplotlib.axis_1">
    <g id="xtick_1">
     <g id="line2d_1">
      <path clip-path="url(#p9a8ee7c60b)" d="M 72 316.8 
L 72 39.6 
" style="fill:none;stroke:#ffffff;stroke-linecap:round;"/>
     </g>
     <g id="line2d_2">
      <defs>
       <path d="M 0 0 
L 0 0 
" id="m86832d5d63" style="stroke:#262626;"/>
      </defs>
      <g>
       <use style="fill:#262626;stroke:#262626;" x="72.0" xlink:href="#m86832d5d63" y="316.8"/>
      </g>
     </g>
     <g id="line2d_3">
      <g>
       <use style="fill:#262626;stroke:#262626;" x="72.0" xlink:href="#m86832d5d63" y="39.6"/>
      </g>
     </g>
     <g id="text_1">
      <!-- Oct 2015 -->
      <defs>
       <path d="M 48 21.921875 
Q 48 11.28125 41.1875 5.03125 
Q 34.375 -1.21875 22.953125 -1.21875 
Q 12.9375 -1.21875 8.0625 1.765625 
L 8.0625 10.15625 
Q 15.53125 5.375 23.046875 5.375 
Q 30.765625 5.375 35.46875 9.84375 
Q 40.1875 14.3125 40.1875 21.4375 
Q 40.1875 28.71875 35.390625 32.6875 
Q 30.609375 36.671875 21.578125 36.671875 
Q 15.53125 36.671875 9.421875 35.9375 
L 11.859375 71.875 
L 44.828125 71.875 
L 44.828125 64.796875 
L 18.84375 64.796875 
L 17.28125 43.171875 
Q 21.046875 43.5 24.171875 43.5 
Q 35.359375 43.5 41.671875 37.71875 
Q 48 31.9375 48 21.921875 
" id="MalgunGothic-35"/>
       <path d="M 4.34375 34.46875 
Q 4.34375 53.515625 10.546875 63.28125 
Q 16.75 73.046875 28.421875 73.046875 
Q 50.828125 73.046875 50.828125 36.234375 
Q 50.828125 18.0625 44.59375 8.421875 
Q 38.375 -1.21875 26.8125 -1.21875 
Q 15.875 -1.21875 10.109375 8.125 
Q 4.34375 17.484375 4.34375 34.46875 
M 12.25 34.859375 
Q 12.25 5.375 27.640625 5.375 
Q 42.921875 5.375 42.921875 35.296875 
Q 42.921875 66.40625 28.03125 66.40625 
Q 12.25 66.40625 12.25 34.859375 
" id="MalgunGothic-30"/>
       <path id="MalgunGothic-20"/>
       <path d="M 31.734375 0.484375 
Q 28.8125 -1.125 24.265625 -1.125 
Q 11.03125 -1.125 11.03125 13.765625 
L 11.03125 44.625 
L 2.15625 44.625 
L 2.15625 51.3125 
L 11.03125 51.3125 
L 11.03125 63.921875 
L 18.75 66.40625 
L 18.75 51.3125 
L 31.734375 51.3125 
L 31.734375 44.625 
L 18.75 44.625 
L 18.75 15.1875 
Q 18.75 9.765625 20.546875 7.609375 
Q 22.359375 5.46875 26.421875 5.46875 
Q 29.5 5.46875 31.734375 7.171875 
z
" id="MalgunGothic-74"/>
       <path d="M 43.171875 2.390625 
Q 37.109375 -1.21875 29.25 -1.21875 
Q 18.5 -1.21875 11.71875 5.8125 
Q 4.9375 12.84375 4.9375 24.46875 
Q 4.9375 37.203125 12.140625 44.84375 
Q 19.34375 52.484375 31.390625 52.484375 
Q 38.03125 52.484375 43.21875 50 
L 43.21875 41.890625 
Q 37.453125 45.953125 30.953125 45.953125 
Q 23.09375 45.953125 17.9375 40.265625 
Q 12.796875 34.578125 12.796875 25.140625 
Q 12.796875 16.15625 17.5 10.765625 
Q 22.21875 5.375 30.421875 5.375 
Q 37.203125 5.375 43.171875 9.859375 
z
" id="MalgunGothic-63"/>
       <path d="M 4.78125 35.0625 
Q 4.78125 52.34375 14.109375 62.6875 
Q 23.4375 73.046875 39.546875 73.046875 
Q 54.390625 73.046875 63.46875 62.953125 
Q 72.5625 52.875 72.5625 36.859375 
Q 72.5625 19.625 63.375 9.203125 
Q 54.203125 -1.21875 38.375 -1.21875 
Q 23.25 -1.21875 14.015625 8.90625 
Q 4.78125 19.046875 4.78125 35.0625 
M 13.09375 35.796875 
Q 13.09375 22.75 19.96875 14.34375 
Q 26.859375 5.953125 38.328125 5.953125 
Q 50.59375 5.953125 57.453125 13.890625 
Q 64.3125 21.828125 64.3125 35.6875 
Q 64.3125 49.8125 57.6875 57.8125 
Q 51.078125 65.828125 38.96875 65.828125 
Q 27.203125 65.828125 20.140625 57.34375 
Q 13.09375 48.875 13.09375 35.796875 
" id="MalgunGothic-4f"/>
       <path d="M 34.859375 0 
L 27.09375 0 
L 27.09375 62.0625 
Q 24.859375 59.8125 19.78125 57.203125 
Q 14.703125 54.59375 10.5 53.5625 
L 10.5 61.859375 
Q 15.875 63.375 22.015625 66.796875 
Q 28.171875 70.21875 31.734375 73.4375 
L 34.859375 73.4375 
z
" id="MalgunGothic-31"/>
       <path d="M 39.359375 52.6875 
Q 39.359375 59.125 35.546875 62.78125 
Q 31.734375 66.453125 25.4375 66.453125 
Q 20.953125 66.453125 16.453125 64.125 
Q 11.96875 61.8125 8.34375 57.765625 
L 8.34375 66.15625 
Q 15.328125 73.046875 26.421875 73.046875 
Q 35.640625 73.046875 41.28125 67.71875 
Q 46.921875 62.40625 46.921875 53.375 
Q 46.921875 45.609375 43.3125 39.765625 
Q 39.703125 33.9375 31 27.734375 
Q 22.796875 21.96875 19.59375 18.984375 
Q 16.40625 16.015625 15.109375 13.34375 
Q 13.8125 10.6875 13.8125 7.03125 
L 48.6875 7.03125 
L 48.6875 0 
L 5.5625 0 
L 5.5625 3.515625 
Q 5.5625 9.421875 7.203125 13.59375 
Q 8.84375 17.78125 12.671875 21.75 
Q 16.5 25.734375 24.953125 31.59375 
Q 32.671875 36.921875 36.015625 41.71875 
Q 39.359375 46.53125 39.359375 52.6875 
" id="MalgunGothic-32"/>
      </defs>
      <g style="fill:#262626;" transform="translate(34.9171562691 351.102370995)rotate(-30.0)scale(0.1 -0.1)">
       <use xlink:href="#MalgunGothic-4f"/>
       <use x="77.34375" xlink:href="#MalgunGothic-63"/>
       <use x="124.609375" xlink:href="#MalgunGothic-74"/>
       <use x="159.08203125" xlink:href="#MalgunGothic-20"/>
       <use x="194.23828125" xlink:href="#MalgunGothic-32"/>
       <use x="249.31640625" xlink:href="#MalgunGothic-30"/>
       <use x="304.39453125" xlink:href="#MalgunGothic-31"/>
       <use x="359.47265625" xlink:href="#MalgunGothic-35"/>
      </g>
     </g>
    </g>
    <g id="xtick_2">
     <g id="line2d_4">
      <path clip-path="url(#p9a8ee7c60b)" d="M 109.913425 316.8 
L 109.913425 39.6 
" style="fill:none;stroke:#ffffff;stroke-linecap:round;"/>
     </g>
     <g id="line2d_5">
      <g>
       <use style="fill:#262626;stroke:#262626;" x="109.913424658" xlink:href="#m86832d5d63" y="316.8"/>
      </g>
     </g>
     <g id="line2d_6">
      <g>
       <use style="fill:#262626;stroke:#262626;" x="109.913424658" xlink:href="#m86832d5d63" y="39.6"/>
      </g>
     </g>
     <g id="text_2">
      <!-- Nov 2015 -->
      <defs>
       <path d="M 67 0 
L 57.078125 0 
L 19.578125 58.015625 
Q 18.40625 59.8125 17.328125 62.5 
L 17.09375 62.5 
Q 17.4375 59.71875 17.4375 52.6875 
L 17.4375 0 
L 9.515625 0 
L 9.515625 71.875 
L 19.96875 71.875 
L 56.453125 14.65625 
Q 58.984375 10.6875 59.328125 9.90625 
L 59.515625 9.90625 
Q 58.984375 13.484375 58.984375 20.5625 
L 58.984375 71.875 
L 67 71.875 
z
" id="MalgunGothic-4e"/>
       <path d="M 48.1875 51.3125 
L 27.640625 0 
L 20.21875 0 
L 0.734375 51.3125 
L 9.28125 51.3125 
L 22.515625 13.625 
Q 23.921875 9.515625 24.3125 6.640625 
L 24.5625 6.640625 
Q 25.046875 10.453125 26.125 13.484375 
L 40.046875 51.3125 
z
" id="MalgunGothic-76"/>
       <path d="M 4.9375 25 
Q 4.9375 37.796875 11.890625 45.140625 
Q 18.84375 52.484375 30.90625 52.484375 
Q 42.140625 52.484375 48.609375 45.421875 
Q 55.078125 38.375 55.078125 25.78125 
Q 55.078125 13.578125 48.09375 6.171875 
Q 41.109375 -1.21875 29.6875 -1.21875 
Q 18.5 -1.21875 11.71875 6 
Q 4.9375 13.234375 4.9375 25 
M 12.796875 25.34375 
Q 12.796875 16.265625 17.546875 10.8125 
Q 22.3125 5.375 30.21875 5.375 
Q 38.421875 5.375 42.796875 10.625 
Q 47.171875 15.875 47.171875 25.53125 
Q 47.171875 35.25 42.765625 40.59375 
Q 38.375 45.953125 30.21875 45.953125 
Q 22.265625 45.953125 17.53125 40.421875 
Q 12.796875 34.90625 12.796875 25.34375 
" id="MalgunGothic-6f"/>
      </defs>
      <g style="fill:#262626;" transform="translate(70.5721490533 352.406277245)rotate(-30.0)scale(0.1 -0.1)">
       <use xlink:href="#MalgunGothic-4e"/>
       <use x="76.513671875" xlink:href="#MalgunGothic-6f"/>
       <use x="136.42578125" xlink:href="#MalgunGothic-76"/>
       <use x="185.15625" xlink:href="#MalgunGothic-20"/>
       <use x="220.3125" xlink:href="#MalgunGothic-32"/>
       <use x="275.390625" xlink:href="#MalgunGothic-30"/>
       <use x="330.46875" xlink:href="#MalgunGothic-31"/>
       <use x="385.546875" xlink:href="#MalgunGothic-35"/>
      </g>
     </g>
    </g>
    <g id="xtick_3">
     <g id="line2d_7">
      <path clip-path="url(#p9a8ee7c60b)" d="M 146.603836 316.8 
L 146.603836 39.6 
" style="fill:none;stroke:#ffffff;stroke-linecap:round;"/>
     </g>
     <g id="line2d_8">
      <g>
       <use style="fill:#262626;stroke:#262626;" x="146.603835616" xlink:href="#m86832d5d63" y="316.8"/>
      </g>
     </g>
     <g id="line2d_9">
      <g>
       <use style="fill:#262626;stroke:#262626;" x="146.603835616" xlink:href="#m86832d5d63" y="39.6"/>
      </g>
     </g>
     <g id="text_3">
      <!-- Dec 2015 -->
      <defs>
       <path d="M 49.3125 23.734375 
L 12.9375 23.734375 
Q 13.1875 14.84375 17.703125 10.125 
Q 22.21875 5.421875 29.828125 5.421875 
Q 38.625 5.421875 45.84375 11.234375 
L 45.84375 3.8125 
Q 38.96875 -1.21875 28.03125 -1.21875 
Q 17.1875 -1.21875 11.0625 5.875 
Q 4.9375 12.984375 4.9375 25.53125 
Q 4.9375 37.203125 11.671875 44.84375 
Q 18.40625 52.484375 28.375 52.484375 
Q 38.328125 52.484375 43.8125 45.96875 
Q 49.3125 39.453125 49.3125 27.9375 
z
M 41.3125 30.5625 
Q 41.3125 37.75 37.859375 41.796875 
Q 34.421875 45.84375 28.265625 45.84375 
Q 22.46875 45.84375 18.265625 41.671875 
Q 14.0625 37.5 13.03125 30.5625 
z
" id="MalgunGothic-65"/>
       <path d="M 9.515625 0 
L 9.515625 71.875 
L 29 71.875 
Q 66.890625 71.875 66.890625 36.8125 
Q 66.890625 20.125 56.046875 10.0625 
Q 45.21875 0 28.125 0 
z
M 17.390625 64.59375 
L 17.390625 7.234375 
L 28.328125 7.234375 
Q 42.71875 7.234375 50.671875 14.96875 
Q 58.640625 22.703125 58.640625 36.625 
Q 58.640625 64.59375 28.8125 64.59375 
z
" id="MalgunGothic-44"/>
      </defs>
      <g style="fill:#262626;" transform="translate(108.357270249 351.774245995)rotate(-30.0)scale(0.1 -0.1)">
       <use xlink:href="#MalgunGothic-44"/>
       <use x="71.728515625" xlink:href="#MalgunGothic-65"/>
       <use x="125.244140625" xlink:href="#MalgunGothic-63"/>
       <use x="172.509765625" xlink:href="#MalgunGothic-20"/>
       <use x="207.666015625" xlink:href="#MalgunGothic-32"/>
       <use x="262.744140625" xlink:href="#MalgunGothic-30"/>
       <use x="317.822265625" xlink:href="#MalgunGothic-31"/>
       <use x="372.900390625" xlink:href="#MalgunGothic-35"/>
      </g>
     </g>
    </g>
    <g id="xtick_4">
     <g id="line2d_10">
      <path clip-path="url(#p9a8ee7c60b)" d="M 184.51726 316.8 
L 184.51726 39.6 
" style="fill:none;stroke:#ffffff;stroke-linecap:round;"/>
     </g>
     <g id="line2d_11">
      <g>
       <use style="fill:#262626;stroke:#262626;" x="184.517260274" xlink:href="#m86832d5d63" y="316.8"/>
      </g>
     </g>
     <g id="line2d_12">
      <g>
       <use style="fill:#262626;stroke:#262626;" x="184.517260274" xlink:href="#m86832d5d63" y="39.6"/>
      </g>
     </g>
     <g id="text_4">
      <!-- Jan 2016 -->
      <defs>
       <path d="M 9.625 47.65625 
Q 17.140625 52.484375 26.90625 52.484375 
Q 44.78125 52.484375 44.78125 33.546875 
L 44.78125 0 
L 37.015625 0 
L 37.015625 8.0625 
L 36.71875 8.0625 
Q 31.390625 -1.21875 20.953125 -1.21875 
Q 13.421875 -1.21875 9 2.8125 
Q 4.59375 6.84375 4.59375 13.578125 
Q 4.59375 27.875 21.484375 30.21875 
L 36.96875 32.46875 
Q 36.96875 45.84375 26.3125 45.84375 
Q 16.9375 45.84375 9.625 39.453125 
z
M 24.421875 24.359375 
Q 18.40625 23.578125 15.515625 21.421875 
Q 12.640625 19.28125 12.640625 14.109375 
Q 12.640625 10.203125 15.40625 7.8125 
Q 18.171875 5.421875 22.65625 5.421875 
Q 28.859375 5.421875 32.90625 9.8125 
Q 36.96875 14.203125 36.96875 20.84375 
L 36.96875 26.03125 
z
" id="MalgunGothic-61"/>
       <path d="M 27.09375 25.53125 
Q 27.09375 12.84375 21.84375 5.8125 
Q 16.609375 -1.21875 7.671875 -1.21875 
Q 3.8125 -1.21875 0.984375 -0.046875 
L 0.984375 7.8125 
Q 3.65625 5.953125 7.859375 5.953125 
Q 19.1875 5.953125 19.1875 25.4375 
L 19.1875 71.875 
L 27.09375 71.875 
z
" id="MalgunGothic-4a"/>
       <path d="M 46.578125 63.578125 
Q 40.921875 66.40625 34.8125 66.40625 
Q 24.859375 66.40625 19.1875 57.640625 
Q 13.53125 48.875 13.578125 34.578125 
L 13.8125 34.578125 
Q 18.796875 44.875 30.28125 44.875 
Q 39.796875 44.875 45.359375 38.71875 
Q 50.921875 32.5625 50.921875 22.65625 
Q 50.921875 12.453125 44.640625 5.609375 
Q 38.375 -1.21875 28.515625 -1.21875 
Q 17.4375 -1.21875 11.5 7.46875 
Q 5.5625 16.15625 5.5625 31.546875 
Q 5.5625 49.703125 13.234375 61.375 
Q 20.90625 73.046875 34.71875 73.046875 
Q 42.1875 73.046875 46.578125 71 
z
M 14.15625 23.53125 
Q 14.15625 15.96875 18.203125 10.671875 
Q 22.265625 5.375 28.8125 5.375 
Q 35.109375 5.375 39.03125 10.078125 
Q 42.96875 14.796875 42.96875 21.6875 
Q 42.96875 29.5 39.203125 33.859375 
Q 35.453125 38.234375 28.71875 38.234375 
Q 22.5625 38.234375 18.359375 33.953125 
Q 14.15625 29.6875 14.15625 23.53125 
" id="MalgunGothic-36"/>
       <path d="M 50.59375 0 
L 42.828125 0 
L 42.828125 29.296875 
Q 42.828125 45.953125 30.671875 45.953125 
Q 24.421875 45.953125 20.28125 41.234375 
Q 16.15625 36.53125 16.15625 29.25 
L 16.15625 0 
L 8.40625 0 
L 8.40625 51.3125 
L 16.15625 51.3125 
L 16.15625 42.71875 
L 16.359375 42.71875 
Q 22.125 52.484375 33.203125 52.484375 
Q 41.65625 52.484375 46.125 47.0625 
Q 50.59375 41.65625 50.59375 31.34375 
z
" id="MalgunGothic-6e"/>
      </defs>
      <g style="fill:#262626;" transform="translate(148.585959697 350.437527245)rotate(-30.0)scale(0.1 -0.1)">
       <use xlink:href="#MalgunGothic-4a"/>
       <use x="35.970703125" xlink:href="#MalgunGothic-61"/>
       <use x="87.97265625" xlink:href="#MalgunGothic-6e"/>
       <use x="145.78515625" xlink:href="#MalgunGothic-20"/>
       <use x="180.94140625" xlink:href="#MalgunGothic-32"/>
       <use x="236.01953125" xlink:href="#MalgunGothic-30"/>
       <use x="291.09765625" xlink:href="#MalgunGothic-31"/>
       <use x="346.17578125" xlink:href="#MalgunGothic-36"/>
      </g>
     </g>
    </g>
    <g id="xtick_5">
     <g id="line2d_13">
      <path clip-path="url(#p9a8ee7c60b)" d="M 222.430685 316.8 
L 222.430685 39.6 
" style="fill:none;stroke:#ffffff;stroke-linecap:round;"/>
     </g>
     <g id="line2d_14">
      <g>
       <use style="fill:#262626;stroke:#262626;" x="222.430684931" xlink:href="#m86832d5d63" y="316.8"/>
      </g>
     </g>
     <g id="line2d_15">
      <g>
       <use style="fill:#262626;stroke:#262626;" x="222.430684931" xlink:href="#m86832d5d63" y="39.6"/>
      </g>
     </g>
     <g id="text_5">
      <!-- Feb 2016 -->
      <defs>
       <path d="M 45.65625 64.59375 
L 17.390625 64.59375 
L 17.390625 39.3125 
L 43.5625 39.3125 
L 43.5625 32.03125 
L 17.390625 32.03125 
L 17.390625 0 
L 9.515625 0 
L 9.515625 71.875 
L 45.65625 71.875 
z
" id="MalgunGothic-46"/>
       <path d="M 16.15625 7.515625 
L 16.15625 0 
L 8.40625 0 
L 8.40625 75.921875 
L 16.15625 75.921875 
L 16.15625 42.234375 
L 16.359375 42.234375 
Q 22.46875 52.484375 34.125 52.484375 
Q 43.953125 52.484375 49.578125 45.578125 
Q 55.21875 38.671875 55.21875 27.15625 
Q 55.21875 14.15625 48.84375 6.46875 
Q 42.484375 -1.21875 31.78125 -1.21875 
Q 21.625 -1.21875 16.359375 7.515625 
z
M 16.15625 20.84375 
Q 16.15625 14.40625 20.421875 9.890625 
Q 24.703125 5.375 31.109375 5.375 
Q 38.671875 5.375 42.984375 11.1875 
Q 47.3125 17 47.3125 27.390625 
Q 47.3125 35.984375 43.234375 40.96875 
Q 39.15625 45.953125 32.375 45.953125 
Q 25.25 45.953125 20.703125 40.875 
Q 16.15625 35.796875 16.15625 28.171875 
z
" id="MalgunGothic-62"/>
      </defs>
      <g style="fill:#262626;" transform="translate(184.970308251 351.320339745)rotate(-30.0)scale(0.1 -0.1)">
       <use xlink:href="#MalgunGothic-46"/>
       <use x="49.853515625" xlink:href="#MalgunGothic-65"/>
       <use x="103.369140625" xlink:href="#MalgunGothic-62"/>
       <use x="163.427734375" xlink:href="#MalgunGothic-20"/>
       <use x="198.583984375" xlink:href="#MalgunGothic-32"/>
       <use x="253.662109375" xlink:href="#MalgunGothic-30"/>
       <use x="308.740234375" xlink:href="#MalgunGothic-31"/>
       <use x="363.818359375" xlink:href="#MalgunGothic-36"/>
      </g>
     </g>
    </g>
    <g id="xtick_6">
     <g id="line2d_16">
      <path clip-path="url(#p9a8ee7c60b)" d="M 257.898082 316.8 
L 257.898082 39.6 
" style="fill:none;stroke:#ffffff;stroke-linecap:round;"/>
     </g>
     <g id="line2d_17">
      <g>
       <use style="fill:#262626;stroke:#262626;" x="257.898082192" xlink:href="#m86832d5d63" y="316.8"/>
      </g>
     </g>
     <g id="line2d_18">
      <g>
       <use style="fill:#262626;stroke:#262626;" x="257.898082192" xlink:href="#m86832d5d63" y="39.6"/>
      </g>
     </g>
     <g id="text_6">
      <!-- Mar 2016 -->
      <defs>
       <path d="M 34.765625 43.359375 
Q 32.5625 45.015625 28.5625 45.015625 
Q 23.296875 45.015625 19.71875 39.890625 
Q 16.15625 34.765625 16.15625 26.265625 
L 16.15625 0 
L 8.40625 0 
L 8.40625 51.3125 
L 16.15625 51.3125 
L 16.15625 40.671875 
L 16.359375 40.671875 
Q 18.109375 46.09375 21.703125 49.140625 
Q 25.296875 52.203125 29.734375 52.203125 
Q 32.953125 52.203125 34.765625 51.515625 
z
" id="MalgunGothic-72"/>
       <path d="M 74.3125 0 
L 74.3125 48.53125 
Q 74.3125 54.15625 75.046875 62.40625 
L 74.8125 62.40625 
Q 73.640625 57.5625 72.703125 55.609375 
L 47.65625 0 
L 44.09375 0 
L 19.09375 55.21875 
Q 18.109375 57.328125 17.046875 62.40625 
L 16.796875 62.40625 
Q 17.1875 59.71875 17.1875 48.6875 
L 17.1875 0 
L 9.515625 0 
L 9.515625 71.875 
L 19.828125 71.875 
L 42.28125 21.234375 
Q 45.015625 15.09375 45.65625 12.75 
L 45.953125 12.75 
Q 46.6875 14.75 49.46875 21.484375 
L 72.46875 71.875 
L 82.171875 71.875 
L 82.171875 0 
z
" id="MalgunGothic-4d"/>
      </defs>
      <g style="fill:#262626;" transform="translate(219.084540818 352.101589745)rotate(-30.0)scale(0.1 -0.1)">
       <use xlink:href="#MalgunGothic-4d"/>
       <use x="91.69921875" xlink:href="#MalgunGothic-61"/>
       <use x="143.701171875" xlink:href="#MalgunGothic-72"/>
       <use x="179.052734375" xlink:href="#MalgunGothic-20"/>
       <use x="214.208984375" xlink:href="#MalgunGothic-32"/>
       <use x="269.287109375" xlink:href="#MalgunGothic-30"/>
       <use x="324.365234375" xlink:href="#MalgunGothic-31"/>
       <use x="379.443359375" xlink:href="#MalgunGothic-36"/>
      </g>
     </g>
    </g>
    <g id="xtick_7">
     <g id="line2d_19">
      <path clip-path="url(#p9a8ee7c60b)" d="M 295.811507 316.8 
L 295.811507 39.6 
" style="fill:none;stroke:#ffffff;stroke-linecap:round;"/>
     </g>
     <g id="line2d_20">
      <g>
       <use style="fill:#262626;stroke:#262626;" x="295.811506849" xlink:href="#m86832d5d63" y="316.8"/>
      </g>
     </g>
     <g id="line2d_21">
      <g>
       <use style="fill:#262626;stroke:#262626;" x="295.811506849" xlink:href="#m86832d5d63" y="39.6"/>
      </g>
     </g>
     <g id="text_7">
      <!-- Apr 2016 -->
      <defs>
       <path d="M 64.59375 0 
L 55.859375 0 
L 48.046875 20.40625 
L 17.234375 20.40625 
L 9.96875 0 
L 1.171875 0 
L 28.8125 71.875 
L 36.8125 71.875 
z
M 45.359375 27.640625 
L 33.890625 58.6875 
Q 33.25 60.40625 32.8125 63.421875 
L 32.5625 63.421875 
Q 32.03125 60.0625 31.390625 58.6875 
L 20.015625 27.640625 
z
" id="MalgunGothic-41"/>
       <path d="M 16.15625 7.515625 
L 16.15625 -23.640625 
L 8.40625 -23.640625 
L 8.40625 51.3125 
L 16.15625 51.3125 
L 16.15625 42.234375 
L 16.359375 42.234375 
Q 22.46875 52.484375 34.125 52.484375 
Q 43.890625 52.484375 49.546875 45.625 
Q 55.21875 38.765625 55.21875 27.15625 
Q 55.21875 14.15625 48.84375 6.46875 
Q 42.484375 -1.21875 31.78125 -1.21875 
Q 21.78125 -1.21875 16.359375 7.515625 
z
M 16.15625 20.796875 
Q 16.15625 14.40625 20.421875 9.890625 
Q 24.703125 5.375 31.109375 5.375 
Q 38.671875 5.375 42.984375 11.1875 
Q 47.3125 17 47.3125 27.390625 
Q 47.3125 35.9375 43.234375 40.9375 
Q 39.15625 45.953125 32.375 45.953125 
Q 25.296875 45.953125 20.71875 40.921875 
Q 16.15625 35.890625 16.15625 28.21875 
z
" id="MalgunGothic-70"/>
      </defs>
      <g style="fill:#262626;" transform="translate(258.540573226 351.210964745)rotate(-30.0)scale(0.1 -0.1)">
       <use xlink:href="#MalgunGothic-41"/>
       <use x="65.8203125" xlink:href="#MalgunGothic-70"/>
       <use x="125.87890625" xlink:href="#MalgunGothic-72"/>
       <use x="161.23046875" xlink:href="#MalgunGothic-20"/>
       <use x="196.38671875" xlink:href="#MalgunGothic-32"/>
       <use x="251.46484375" xlink:href="#MalgunGothic-30"/>
       <use x="306.54296875" xlink:href="#MalgunGothic-31"/>
       <use x="361.62109375" xlink:href="#MalgunGothic-36"/>
      </g>
     </g>
    </g>
    <g id="xtick_8">
     <g id="line2d_22">
      <path clip-path="url(#p9a8ee7c60b)" d="M 332.501918 316.8 
L 332.501918 39.6 
" style="fill:none;stroke:#ffffff;stroke-linecap:round;"/>
     </g>
     <g id="line2d_23">
      <g>
       <use style="fill:#262626;stroke:#262626;" x="332.501917808" xlink:href="#m86832d5d63" y="316.8"/>
      </g>
     </g>
     <g id="line2d_24">
      <g>
       <use style="fill:#262626;stroke:#262626;" x="332.501917808" xlink:href="#m86832d5d63" y="39.6"/>
      </g>
     </g>
     <g id="text_8">
      <!-- May 2016 -->
      <defs>
       <path d="M 48.734375 51.3125 
L 24.953125 -8.5 
Q 18.703125 -24.171875 7.515625 -24.171875 
Q 4.890625 -24.171875 2.4375 -23.578125 
L 2.4375 -16.5 
Q 4.9375 -17.328125 7.171875 -17.328125 
Q 13.421875 -17.328125 16.546875 -9.8125 
L 20.75 0.09375 
L 0.734375 51.3125 
L 9.328125 51.3125 
L 23.484375 11.28125 
Q 23.640625 10.890625 24.5625 7.625 
L 24.8125 7.625 
L 25.78125 11.1875 
L 40.671875 51.3125 
z
" id="MalgunGothic-79"/>
      </defs>
      <g style="fill:#262626;" transform="translate(292.457497357 352.750894646)rotate(-30.0)scale(0.1 -0.1)">
       <use xlink:href="#MalgunGothic-4d"/>
       <use x="91.69921875" xlink:href="#MalgunGothic-61"/>
       <use x="143.701171875" xlink:href="#MalgunGothic-79"/>
       <use x="192.96875" xlink:href="#MalgunGothic-20"/>
       <use x="228.125" xlink:href="#MalgunGothic-32"/>
       <use x="283.203125" xlink:href="#MalgunGothic-30"/>
       <use x="338.28125" xlink:href="#MalgunGothic-31"/>
       <use x="393.359375" xlink:href="#MalgunGothic-36"/>
      </g>
     </g>
    </g>
    <g id="xtick_9">
     <g id="line2d_25">
      <path clip-path="url(#p9a8ee7c60b)" d="M 370.415342 316.8 
L 370.415342 39.6 
" style="fill:none;stroke:#ffffff;stroke-linecap:round;"/>
     </g>
     <g id="line2d_26">
      <g>
       <use style="fill:#262626;stroke:#262626;" x="370.415342466" xlink:href="#m86832d5d63" y="316.8"/>
      </g>
     </g>
     <g id="line2d_27">
      <g>
       <use style="fill:#262626;stroke:#262626;" x="370.415342466" xlink:href="#m86832d5d63" y="39.6"/>
      </g>
     </g>
     <g id="text_9">
      <!-- Jun 2016 -->
      <defs>
       <path d="M 49.46875 0 
L 41.703125 0 
L 41.703125 8.109375 
L 41.5 8.109375 
Q 36.421875 -1.21875 25.6875 -1.21875 
Q 7.328125 -1.21875 7.328125 20.65625 
L 7.328125 51.3125 
L 14.984375 51.3125 
L 14.984375 21.921875 
Q 14.984375 5.375 27.59375 5.375 
Q 33.734375 5.375 37.71875 9.9375 
Q 41.703125 14.5 41.703125 21.78125 
L 41.703125 51.3125 
L 49.46875 51.3125 
z
" id="MalgunGothic-75"/>
      </defs>
      <g style="fill:#262626;" transform="translate(333.979311458 350.728933495)rotate(-30.0)scale(0.1 -0.1)">
       <use xlink:href="#MalgunGothic-4a"/>
       <use x="35.986328125" xlink:href="#MalgunGothic-75"/>
       <use x="93.798828125" xlink:href="#MalgunGothic-6e"/>
       <use x="151.611328125" xlink:href="#MalgunGothic-20"/>
       <use x="186.767578125" xlink:href="#MalgunGothic-32"/>
       <use x="241.845703125" xlink:href="#MalgunGothic-30"/>
       <use x="296.923828125" xlink:href="#MalgunGothic-31"/>
       <use x="352.001953125" xlink:href="#MalgunGothic-36"/>
      </g>
     </g>
    </g>
    <g id="xtick_10">
     <g id="line2d_28">
      <path clip-path="url(#p9a8ee7c60b)" d="M 407.105753 316.8 
L 407.105753 39.6 
" style="fill:none;stroke:#ffffff;stroke-linecap:round;"/>
     </g>
     <g id="line2d_29">
      <g>
       <use style="fill:#262626;stroke:#262626;" x="407.105753425" xlink:href="#m86832d5d63" y="316.8"/>
      </g>
     </g>
     <g id="line2d_30">
      <g>
       <use style="fill:#262626;stroke:#262626;" x="407.105753425" xlink:href="#m86832d5d63" y="39.6"/>
      </g>
     </g>
     <g id="text_10">
      <!-- Jul 2016 -->
      <defs>
       <path d="M 8.453125 0 
L 8.453125 75.921875 
L 16.15625 75.921875 
L 16.15625 0 
z
" id="MalgunGothic-6c"/>
      </defs>
      <g style="fill:#262626;" transform="translate(373.545197391 349.068777245)rotate(-30.0)scale(0.1 -0.1)">
       <use xlink:href="#MalgunGothic-4a"/>
       <use x="35.986328125" xlink:href="#MalgunGothic-75"/>
       <use x="93.798828125" xlink:href="#MalgunGothic-6c"/>
       <use x="118.408203125" xlink:href="#MalgunGothic-20"/>
       <use x="153.564453125" xlink:href="#MalgunGothic-32"/>
       <use x="208.642578125" xlink:href="#MalgunGothic-30"/>
       <use x="263.720703125" xlink:href="#MalgunGothic-31"/>
       <use x="318.798828125" xlink:href="#MalgunGothic-36"/>
      </g>
     </g>
    </g>
    <g id="xtick_11">
     <g id="line2d_31">
      <path clip-path="url(#p9a8ee7c60b)" d="M 445.019178 316.8 
L 445.019178 39.6 
" style="fill:none;stroke:#ffffff;stroke-linecap:round;"/>
     </g>
     <g id="line2d_32">
      <g>
       <use style="fill:#262626;stroke:#262626;" x="445.019178082" xlink:href="#m86832d5d63" y="316.8"/>
      </g>
     </g>
     <g id="line2d_33">
      <g>
       <use style="fill:#262626;stroke:#262626;" x="445.019178082" xlink:href="#m86832d5d63" y="39.6"/>
      </g>
     </g>
     <g id="text_11">
      <!-- Aug 2016 -->
      <defs>
       <path d="M 51.765625 4.046875 
Q 51.765625 -24.171875 25.046875 -24.171875 
Q 15.671875 -24.171875 8.40625 -20.515625 
L 8.40625 -12.59375 
Q 17 -17.4375 25 -17.4375 
Q 44.09375 -17.4375 44.09375 3.03125 
L 44.09375 8.734375 
L 43.890625 8.734375 
Q 37.84375 -1.21875 26.171875 -1.21875 
Q 16.65625 -1.21875 10.796875 5.65625 
Q 4.9375 12.546875 4.9375 23.96875 
Q 4.9375 37.109375 11.28125 44.796875 
Q 17.625 52.484375 28.375 52.484375 
Q 38.8125 52.484375 43.890625 44.09375 
L 44.09375 44.09375 
L 44.09375 51.3125 
L 51.765625 51.3125 
z
M 44.09375 30.90625 
Q 44.09375 37.15625 39.796875 41.546875 
Q 35.5 45.953125 29.34375 45.953125 
Q 21.625 45.953125 17.203125 40.265625 
Q 12.796875 34.578125 12.796875 24.5625 
Q 12.796875 15.875 17.0625 10.625 
Q 21.34375 5.375 28.171875 5.375 
Q 35.109375 5.375 39.59375 10.40625 
Q 44.09375 15.4375 44.09375 23.09375 
z
" id="MalgunGothic-67"/>
      </defs>
      <g style="fill:#262626;" transform="translate(405.765005812 352.294644646)rotate(-30.0)scale(0.1 -0.1)">
       <use xlink:href="#MalgunGothic-41"/>
       <use x="65.8203125" xlink:href="#MalgunGothic-75"/>
       <use x="123.6328125" xlink:href="#MalgunGothic-67"/>
       <use x="183.837890625" xlink:href="#MalgunGothic-20"/>
       <use x="218.994140625" xlink:href="#MalgunGothic-32"/>
       <use x="274.072265625" xlink:href="#MalgunGothic-30"/>
       <use x="329.150390625" xlink:href="#MalgunGothic-31"/>
       <use x="384.228515625" xlink:href="#MalgunGothic-36"/>
      </g>
     </g>
    </g>
    <g id="xtick_12">
     <g id="line2d_34">
      <path clip-path="url(#p9a8ee7c60b)" d="M 482.932603 316.8 
L 482.932603 39.6 
" style="fill:none;stroke:#ffffff;stroke-linecap:round;"/>
     </g>
     <g id="line2d_35">
      <g>
       <use style="fill:#262626;stroke:#262626;" x="482.93260274" xlink:href="#m86832d5d63" y="316.8"/>
      </g>
     </g>
     <g id="line2d_36">
      <g>
       <use style="fill:#262626;stroke:#262626;" x="482.93260274" xlink:href="#m86832d5d63" y="39.6"/>
      </g>
     </g>
     <g id="text_12">
      <!-- Sep 2016 -->
      <defs>
       <path d="M 6.15625 12.453125 
Q 9.46875 9.578125 15.0625 7.8125 
Q 20.65625 6.0625 25.390625 6.0625 
Q 41.0625 6.0625 41.0625 17.4375 
Q 41.0625 20.703125 39.421875 23.1875 
Q 37.796875 25.6875 35.15625 27.4375 
Q 32.515625 29.203125 24.171875 33.5 
Q 14.109375 38.671875 10.171875 43.03125 
Q 6.25 47.40625 6.25 54 
Q 6.25 62.796875 13.40625 67.921875 
Q 20.5625 73.046875 31.0625 73.046875 
Q 41.703125 73.046875 46.296875 70.515625 
L 46.296875 61.375 
Q 40.046875 65.71875 30.03125 65.71875 
Q 23.1875 65.71875 18.859375 62.78125 
Q 14.546875 59.859375 14.546875 54.6875 
Q 14.546875 50 17.59375 47.046875 
Q 20.65625 44.09375 30.28125 39.40625 
Q 41.5 33.796875 45.40625 28.8125 
Q 49.3125 23.828125 49.3125 18.015625 
Q 49.3125 8.6875 42.578125 3.734375 
Q 35.84375 -1.21875 23.921875 -1.21875 
Q 20.171875 -1.21875 14.484375 -0.015625 
Q 8.796875 1.171875 6.15625 2.9375 
z
" id="MalgunGothic-53"/>
      </defs>
      <g style="fill:#262626;" transform="translate(445.087927286 351.542214745)rotate(-30.0)scale(0.1 -0.1)">
       <use xlink:href="#MalgunGothic-53"/>
       <use x="54.296875" xlink:href="#MalgunGothic-65"/>
       <use x="107.8125" xlink:href="#MalgunGothic-70"/>
       <use x="167.87109375" xlink:href="#MalgunGothic-20"/>
       <use x="203.02734375" xlink:href="#MalgunGothic-32"/>
       <use x="258.10546875" xlink:href="#MalgunGothic-30"/>
       <use x="313.18359375" xlink:href="#MalgunGothic-31"/>
       <use x="368.26171875" xlink:href="#MalgunGothic-36"/>
      </g>
     </g>
    </g>
    <g id="text_13">
     <!-- Date -->
     <g style="fill:#262626;" transform="translate(283.55546875 368.195646676)scale(0.11 -0.11)">
      <use xlink:href="#MalgunGothic-44"/>
      <use x="71.728515625" xlink:href="#MalgunGothic-61"/>
      <use x="123.73046875" xlink:href="#MalgunGothic-74"/>
      <use x="158.203125" xlink:href="#MalgunGothic-65"/>
     </g>
    </g>
   </g>
   <g id="matplotlib.axis_2">
    <g id="ytick_1">
     <g id="line2d_37">
      <path clip-path="url(#p9a8ee7c60b)" d="M 72 316.8 
L 518.4 316.8 
" style="fill:none;stroke:#ffffff;stroke-linecap:round;"/>
     </g>
     <g id="line2d_38">
      <g>
       <use style="fill:#262626;stroke:#262626;" x="72.0" xlink:href="#m86832d5d63" y="316.8"/>
      </g>
     </g>
     <g id="line2d_39">
      <g>
       <use style="fill:#262626;stroke:#262626;" x="518.4" xlink:href="#m86832d5d63" y="316.8"/>
      </g>
     </g>
     <g id="text_14">
      <!-- 85 -->
      <defs>
       <path d="M 4.734375 20.015625 
Q 4.734375 26.078125 8.421875 31.421875 
Q 12.109375 36.765625 18.015625 38.96875 
Q 13.375 41.359375 10.546875 45.546875 
Q 7.71875 49.75 7.71875 54.6875 
Q 7.71875 59.8125 10.296875 64.03125 
Q 12.890625 68.265625 17.53125 70.65625 
Q 22.171875 73.046875 27.78125 73.046875 
Q 36.46875 73.046875 42.1875 67.84375 
Q 47.90625 62.640625 47.90625 54.6875 
Q 47.90625 49.703125 45.015625 45.53125 
Q 42.140625 41.359375 37.703125 38.96875 
Q 43.5625 36.71875 47.21875 31.390625 
Q 50.875 26.078125 50.875 20.015625 
Q 50.875 10.5 44.421875 4.640625 
Q 37.984375 -1.21875 27.78125 -1.21875 
Q 17.671875 -1.21875 11.203125 4.703125 
Q 4.734375 10.640625 4.734375 20.015625 
M 12.640625 20.75 
Q 12.640625 13.71875 16.890625 9.546875 
Q 21.140625 5.375 27.828125 5.375 
Q 34.46875 5.375 38.78125 9.671875 
Q 43.109375 13.96875 43.109375 20.75 
Q 43.109375 27.046875 38.78125 31.421875 
Q 34.46875 35.796875 27.828125 35.796875 
Q 21.4375 35.796875 17.03125 31.5625 
Q 12.640625 27.34375 12.640625 20.75 
M 15.671875 54.046875 
Q 15.671875 48.828125 19.28125 45.3125 
Q 22.90625 41.796875 27.828125 41.796875 
Q 32.765625 41.796875 36.40625 45.3125 
Q 40.046875 48.828125 40.046875 54.046875 
Q 40.046875 59.421875 36.578125 62.90625 
Q 33.109375 66.40625 27.828125 66.40625 
Q 22.65625 66.40625 19.15625 62.953125 
Q 15.671875 59.515625 15.671875 54.046875 
" id="MalgunGothic-38"/>
      </defs>
      <g style="fill:#262626;" transform="translate(53.984375 319.4140625)scale(0.1 -0.1)">
       <use xlink:href="#MalgunGothic-38"/>
       <use x="55.078125" xlink:href="#MalgunGothic-35"/>
      </g>
     </g>
    </g>
    <g id="ytick_2">
     <g id="line2d_40">
      <path clip-path="url(#p9a8ee7c60b)" d="M 72 282.15 
L 518.4 282.15 
" style="fill:none;stroke:#ffffff;stroke-linecap:round;"/>
     </g>
     <g id="line2d_41">
      <g>
       <use style="fill:#262626;stroke:#262626;" x="72.0" xlink:href="#m86832d5d63" y="282.15"/>
      </g>
     </g>
     <g id="line2d_42">
      <g>
       <use style="fill:#262626;stroke:#262626;" x="518.4" xlink:href="#m86832d5d63" y="282.15"/>
      </g>
     </g>
     <g id="text_15">
      <!-- 90 -->
      <defs>
       <path d="M 8.6875 8.796875 
Q 14.703125 5.375 21.34375 5.375 
Q 31.15625 5.375 36.671875 13.359375 
Q 42.1875 21.34375 42.1875 36.140625 
Q 42.09375 36.03125 42 36.140625 
Q 37.3125 26.765625 25.828125 26.765625 
Q 16.546875 26.765625 10.65625 33.125 
Q 4.78125 39.5 4.78125 49.125 
Q 4.78125 59.46875 11.109375 66.25 
Q 17.4375 73.046875 27.6875 73.046875 
Q 38.53125 73.046875 44.265625 64.546875 
Q 50 56.0625 50 40.28125 
Q 50 20.609375 42.453125 9.6875 
Q 34.90625 -1.21875 21 -1.21875 
Q 13.765625 -1.21875 8.6875 1.21875 
z
M 12.703125 50.296875 
Q 12.703125 42.828125 16.609375 38.28125 
Q 20.515625 33.734375 27.484375 33.734375 
Q 33.546875 33.734375 37.59375 37.765625 
Q 41.65625 41.796875 41.65625 47.609375 
Q 41.65625 55.5625 37.671875 60.984375 
Q 33.6875 66.40625 26.953125 66.40625 
Q 20.65625 66.40625 16.671875 61.6875 
Q 12.703125 56.984375 12.703125 50.296875 
" id="MalgunGothic-39"/>
      </defs>
      <g style="fill:#262626;" transform="translate(53.984375 284.7640625)scale(0.1 -0.1)">
       <use xlink:href="#MalgunGothic-39"/>
       <use x="55.078125" xlink:href="#MalgunGothic-30"/>
      </g>
     </g>
    </g>
    <g id="ytick_3">
     <g id="line2d_43">
      <path clip-path="url(#p9a8ee7c60b)" d="M 72 247.5 
L 518.4 247.5 
" style="fill:none;stroke:#ffffff;stroke-linecap:round;"/>
     </g>
     <g id="line2d_44">
      <g>
       <use style="fill:#262626;stroke:#262626;" x="72.0" xlink:href="#m86832d5d63" y="247.5"/>
      </g>
     </g>
     <g id="line2d_45">
      <g>
       <use style="fill:#262626;stroke:#262626;" x="518.4" xlink:href="#m86832d5d63" y="247.5"/>
      </g>
     </g>
     <g id="text_16">
      <!-- 95 -->
      <g style="fill:#262626;" transform="translate(53.984375 250.1140625)scale(0.1 -0.1)">
       <use xlink:href="#MalgunGothic-39"/>
       <use x="55.078125" xlink:href="#MalgunGothic-35"/>
      </g>
     </g>
    </g>
    <g id="ytick_4">
     <g id="line2d_46">
      <path clip-path="url(#p9a8ee7c60b)" d="M 72 212.85 
L 518.4 212.85 
" style="fill:none;stroke:#ffffff;stroke-linecap:round;"/>
     </g>
     <g id="line2d_47">
      <g>
       <use style="fill:#262626;stroke:#262626;" x="72.0" xlink:href="#m86832d5d63" y="212.85"/>
      </g>
     </g>
     <g id="line2d_48">
      <g>
       <use style="fill:#262626;stroke:#262626;" x="518.4" xlink:href="#m86832d5d63" y="212.85"/>
      </g>
     </g>
     <g id="text_17">
      <!-- 100 -->
      <g style="fill:#262626;" transform="translate(48.4765625 215.4640625)scale(0.1 -0.1)">
       <use xlink:href="#MalgunGothic-31"/>
       <use x="55.078125" xlink:href="#MalgunGothic-30"/>
       <use x="110.15625" xlink:href="#MalgunGothic-30"/>
      </g>
     </g>
    </g>
    <g id="ytick_5">
     <g id="line2d_49">
      <path clip-path="url(#p9a8ee7c60b)" d="M 72 178.2 
L 518.4 178.2 
" style="fill:none;stroke:#ffffff;stroke-linecap:round;"/>
     </g>
     <g id="line2d_50">
      <g>
       <use style="fill:#262626;stroke:#262626;" x="72.0" xlink:href="#m86832d5d63" y="178.2"/>
      </g>
     </g>
     <g id="line2d_51">
      <g>
       <use style="fill:#262626;stroke:#262626;" x="518.4" xlink:href="#m86832d5d63" y="178.2"/>
      </g>
     </g>
     <g id="text_18">
      <!-- 105 -->
      <g style="fill:#262626;" transform="translate(48.4765625 180.8140625)scale(0.1 -0.1)">
       <use xlink:href="#MalgunGothic-31"/>
       <use x="55.078125" xlink:href="#MalgunGothic-30"/>
       <use x="110.15625" xlink:href="#MalgunGothic-35"/>
      </g>
     </g>
    </g>
    <g id="ytick_6">
     <g id="line2d_52">
      <path clip-path="url(#p9a8ee7c60b)" d="M 72 143.55 
L 518.4 143.55 
" style="fill:none;stroke:#ffffff;stroke-linecap:round;"/>
     </g>
     <g id="line2d_53">
      <g>
       <use style="fill:#262626;stroke:#262626;" x="72.0" xlink:href="#m86832d5d63" y="143.55"/>
      </g>
     </g>
     <g id="line2d_54">
      <g>
       <use style="fill:#262626;stroke:#262626;" x="518.4" xlink:href="#m86832d5d63" y="143.55"/>
      </g>
     </g>
     <g id="text_19">
      <!-- 110 -->
      <g style="fill:#262626;" transform="translate(48.4765625 146.1640625)scale(0.1 -0.1)">
       <use xlink:href="#MalgunGothic-31"/>
       <use x="55.078125" xlink:href="#MalgunGothic-31"/>
       <use x="110.15625" xlink:href="#MalgunGothic-30"/>
      </g>
     </g>
    </g>
    <g id="ytick_7">
     <g id="line2d_55">
      <path clip-path="url(#p9a8ee7c60b)" d="M 72 108.9 
L 518.4 108.9 
" style="fill:none;stroke:#ffffff;stroke-linecap:round;"/>
     </g>
     <g id="line2d_56">
      <g>
       <use style="fill:#262626;stroke:#262626;" x="72.0" xlink:href="#m86832d5d63" y="108.9"/>
      </g>
     </g>
     <g id="line2d_57">
      <g>
       <use style="fill:#262626;stroke:#262626;" x="518.4" xlink:href="#m86832d5d63" y="108.9"/>
      </g>
     </g>
     <g id="text_20">
      <!-- 115 -->
      <g style="fill:#262626;" transform="translate(48.4765625 111.5140625)scale(0.1 -0.1)">
       <use xlink:href="#MalgunGothic-31"/>
       <use x="55.078125" xlink:href="#MalgunGothic-31"/>
       <use x="110.15625" xlink:href="#MalgunGothic-35"/>
      </g>
     </g>
    </g>
    <g id="ytick_8">
     <g id="line2d_58">
      <path clip-path="url(#p9a8ee7c60b)" d="M 72 74.25 
L 518.4 74.25 
" style="fill:none;stroke:#ffffff;stroke-linecap:round;"/>
     </g>
     <g id="line2d_59">
      <g>
       <use style="fill:#262626;stroke:#262626;" x="72.0" xlink:href="#m86832d5d63" y="74.25"/>
      </g>
     </g>
     <g id="line2d_60">
      <g>
       <use style="fill:#262626;stroke:#262626;" x="518.4" xlink:href="#m86832d5d63" y="74.25"/>
      </g>
     </g>
     <g id="text_21">
      <!-- 120 -->
      <g style="fill:#262626;" transform="translate(48.4765625 76.8640625)scale(0.1 -0.1)">
       <use xlink:href="#MalgunGothic-31"/>
       <use x="55.078125" xlink:href="#MalgunGothic-32"/>
       <use x="110.15625" xlink:href="#MalgunGothic-30"/>
      </g>
     </g>
    </g>
    <g id="ytick_9">
     <g id="line2d_61">
      <path clip-path="url(#p9a8ee7c60b)" d="M 72 39.6 
L 518.4 39.6 
" style="fill:none;stroke:#ffffff;stroke-linecap:round;"/>
     </g>
     <g id="line2d_62">
      <g>
       <use style="fill:#262626;stroke:#262626;" x="72.0" xlink:href="#m86832d5d63" y="39.6"/>
      </g>
     </g>
     <g id="line2d_63">
      <g>
       <use style="fill:#262626;stroke:#262626;" x="518.4" xlink:href="#m86832d5d63" y="39.6"/>
      </g>
     </g>
     <g id="text_22">
      <!-- 125 -->
      <g style="fill:#262626;" transform="translate(48.4765625 42.2140625)scale(0.1 -0.1)">
       <use xlink:href="#MalgunGothic-31"/>
       <use x="55.078125" xlink:href="#MalgunGothic-32"/>
       <use x="110.15625" xlink:href="#MalgunGothic-35"/>
      </g>
     </g>
    </g>
    <g id="text_23">
     <!-- 주가(달러) -->
     <defs>
      <path d="M 79.59375 40.09375 
L 79.59375 -8.796875 
L 72.3125 -8.796875 
L 72.3125 85.40625 
L 79.59375 85.40625 
L 79.59375 46.578125 
L 96.484375 46.578125 
L 96.484375 40.09375 
z
M 56.390625 77 
Q 55.328125 36.921875 14.015625 13.484375 
L 8.40625 19.390625 
Q 23.1875 25.484375 34.90625 39.15625 
Q 46.625 52.828125 48.578125 70.515625 
L 12.40625 70.515625 
L 12.40625 77 
z
" id="MalgunGothic-ac00"/>
      <path d="M 1.265625 -16.3125 
Q 16.890625 2.34375 16.890625 27.484375 
Q 16.890625 52.78125 1.125 71.875 
L 8.203125 71.875 
Q 23.78125 53.609375 23.78125 27.390625 
Q 23.78125 1.375 8.203125 -16.3125 
z
" id="MalgunGothic-29"/>
      <path d="M 79.984375 56.59375 
L 79.984375 37.3125 
L 72.703125 37.3125 
L 72.703125 85.40625 
L 79.984375 85.40625 
L 79.984375 63.09375 
L 94.1875 63.09375 
L 94.1875 56.59375 
z
M 60.890625 44.390625 
Q 49.65625 43.40625 12.984375 43.40625 
L 12.984375 81.203125 
L 57.515625 81.203125 
L 57.515625 74.8125 
L 20.21875 74.8125 
L 20.21875 49.8125 
L 26.515625 49.8125 
Q 50.046875 49.8125 60.40625 50.59375 
z
M 22.90625 -6.6875 
L 22.90625 16.40625 
L 72.796875 16.40625 
L 72.796875 25.59375 
L 22.90625 25.59375 
L 22.90625 32.078125 
L 79.984375 32.078125 
L 79.984375 10.109375 
L 30.078125 10.109375 
L 30.078125 -0.203125 
L 82.515625 -0.203125 
L 82.515625 -6.6875 
z
" id="MalgunGothic-b2ec"/>
      <path d="M 77.484375 -8.796875 
L 77.484375 40.09375 
L 60.40625 40.09375 
L 60.40625 46.578125 
L 77.484375 46.578125 
L 77.484375 85.40625 
L 84.8125 85.40625 
L 84.8125 -8.796875 
z
M 14.40625 12.203125 
L 14.40625 49.515625 
L 48.296875 49.515625 
L 48.296875 70.40625 
L 14.59375 70.40625 
L 14.59375 76.90625 
L 55.609375 76.90625 
L 55.609375 43.21875 
L 21.6875 43.21875 
L 21.6875 18.609375 
Q 44.875 18.609375 51.53125 18.84375 
Q 58.203125 19.09375 63.375 20.125 
L 64.59375 14.40625 
Q 52.640625 12.203125 14.40625 12.203125 
" id="MalgunGothic-b7ec"/>
      <path d="M 22.46875 -16.3125 
Q 6.984375 1.375 6.984375 27.390625 
Q 6.984375 53.609375 22.46875 71.875 
L 29.5 71.875 
Q 13.71875 52.6875 13.71875 27.484375 
Q 13.71875 2.390625 29.390625 -16.3125 
z
" id="MalgunGothic-28"/>
      <path d="M 85.796875 46.390625 
Q 74.609375 47.953125 64.125 54.125 
Q 53.65625 60.296875 50 66.5 
Q 46.578125 60.453125 36.203125 54.046875 
Q 25.828125 47.65625 14.40625 45.796875 
L 9.90625 51.90625 
Q 22.859375 53.21875 33.625 60.046875 
Q 44.390625 66.890625 46.09375 75.390625 
L 16.015625 75.390625 
L 16.015625 81.890625 
L 83.984375 81.890625 
L 83.984375 75.390625 
L 53.8125 75.390625 
Q 55.46875 66.75 66.015625 60.15625 
Q 76.5625 53.5625 90.09375 52.296875 
z
M 53.71875 29.109375 
L 53.71875 -8.796875 
L 46.296875 -8.796875 
L 46.296875 29.109375 
L 6.296875 29.109375 
L 6.296875 35.59375 
L 93.703125 35.59375 
L 93.703125 29.109375 
z
" id="MalgunGothic-c8fc"/>
     </defs>
     <g style="fill:#262626;" transform="translate(40.87609375 203.5515625)rotate(-90.0)scale(0.11 -0.11)">
      <use xlink:href="#MalgunGothic-c8fc"/>
      <use x="100.0" xlink:href="#MalgunGothic-ac00"/>
      <use x="200.0" xlink:href="#MalgunGothic-28"/>
      <use x="230.46875" xlink:href="#MalgunGothic-b2ec"/>
      <use x="330.46875" xlink:href="#MalgunGothic-b7ec"/>
      <use x="430.46875" xlink:href="#MalgunGothic-29"/>
     </g>
    </g>
   </g>
   <g id="line2d_64">
    <path clip-path="url(#p9a8ee7c60b)" d="M 72 162.357181 
L 73.223014 156.929266 
L 76.892055 154.215284 
L 78.115068 150.619279 
L 79.338082 154.215284 
L 80.561096 162.899988 
L 81.78411 145.12345 
L 85.453151 148.651644 
L 86.676164 147.362491 
L 87.899178 158.082695 
L 89.122192 146.887543 
L 90.345205 152.45119 
L 94.014247 147.769566 
L 95.23726 133.928353 
L 96.460274 133.996163 
L 97.683288 122.190403 
L 98.906301 97.90033 
L 102.575342 123.68309 
L 103.798356 128.636065 
L 105.02137 96.611232 
L 106.244384 88.062204 
L 107.467397 95.050672 
L 111.136438 83.651986 
L 112.359452 74.220936 
L 114.805479 81.904192 
L 116.028493 80.950243 
L 119.697534 84.289075 
L 120.920548 110.182196 
L 122.143562 114.679391 
L 123.366575 117.336838 
L 124.589589 140.368104 
L 128.25863 127.830369 
L 129.481644 131.169202 
L 130.704658 106.6389 
L 131.927671 96.486097 
L 133.150685 92.942795 
L 136.819726 103.504482 
L 138.04274 95.804705 
L 139.265753 101.596577 
L 141.711781 103.095661 
L 145.380822 99.756773 
L 146.603836 106.298235 
L 149.049863 120.880134 
L 150.272877 94.782599 
L 153.941918 99.893079 
L 155.164932 100.233751 
L 156.387945 118.018224 
L 157.610959 114.27057 
L 158.833973 134.64434 
L 162.503014 139.4141 
L 163.726027 152.973948 
L 164.949041 147.182082 
L 166.172055 163.263016 
L 167.395068 183.364271 
L 171.06411 174.506081 
L 172.287123 175.187474 
L 173.510137 165.784205 
L 174.733151 169.736322 
L 179.625205 177.981227 
L 180.848219 164.898406 
L 182.071233 174.574238 
L 183.294247 188.611008 
L 188.186301 187.997773 
L 189.409315 205.986667 
L 190.632329 219.682772 
L 191.855342 248.642161 
L 196.747397 234.469084 
L 197.970411 224.725096 
L 199.193425 242.237011 
L 200.416438 227.723263 
L 201.639452 244.008659 
L 206.531507 247.211178 
L 207.754521 246.325386 
L 208.977534 249.664218 
L 210.200548 214.776699 
L 213.869589 228.268342 
L 215.092603 224.520681 
L 216.315616 269.288495 
L 217.53863 264.723143 
L 218.761644 242.577725 
L 222.430685 248.778419 
L 223.653699 262.065647 
L 224.876712 249.323546 
L 226.099726 244.048299 
L 227.32274 261.723763 
L 230.991781 254.941288 
L 232.214795 255.078336 
L 233.437808 260.011027 
L 234.660822 263.916068 
L 235.883836 261.929286 
L 240.77589 243.774259 
L 241.998904 233.63483 
L 243.221918 246.377596 
L 244.444932 247.884816 
L 248.113973 242.130047 
L 249.336986 257.133587 
L 250.56 247.473777 
L 251.783014 242.952125 
L 253.006027 241.924468 
L 256.675068 243.431688 
L 257.898082 217.124071 
L 259.121096 215.616851 
L 260.34411 210.478637 
L 261.567123 200.133693 
L 265.236164 207.943768 
L 266.459178 213.698592 
L 267.682192 213.081982 
L 268.905205 212.739466 
L 270.128219 205.271906 
L 273.79726 203.490695 
L 275.020274 189.377702 
L 276.243288 179.854884 
L 277.466301 181.019533 
L 278.689315 180.197455 
L 282.358356 180.26593 
L 283.58137 174.716677 
L 284.804384 178.758766 
L 286.027397 181.91019 
L 290.919452 185.198621 
L 292.142466 168.139768 
L 293.365479 155.260002 
L 294.588493 159.165043 
L 295.811507 152.314094 
L 299.480548 144.572487 
L 300.703562 153.547267 
L 301.926575 145.668667 
L 303.149589 162.247951 
L 308.041644 158.95952 
L 309.264658 149.231138 
L 310.487671 138.269624 
L 311.710685 137.858585 
L 312.933699 153.27322 
L 316.60274 169.509939 
L 317.825753 173.414981 
L 319.048767 171.907816 
L 320.271781 179.854884 
L 321.494795 181.841666 
L 325.163836 185.952231 
L 326.386849 190.953445 
L 327.609863 235.690137 
L 328.832877 256.174461 
L 330.05589 263.642021 
L 333.724932 264.327107 
L 334.947945 253.77664 
L 336.170959 260.559065 
L 337.393973 263.1783 
L 338.616986 266.762462 
L 342.286027 266.279981 
L 343.509041 261.937622 
L 344.732055 268.209917 
L 345.955068 283.167033 
L 347.178082 281.926348 
L 350.847123 258.767002 
L 352.070137 261.455135 
L 353.293151 254.079993 
L 354.516164 256.561356 
L 355.739178 249.530809 
L 359.408219 241.190699 
L 360.631233 231.058478 
L 361.854247 219.203091 
L 363.07726 213.757885 
L 364.300274 214.171475 
L 369.192329 217.548866 
L 370.415342 227.198607 
L 371.638356 232.299156 
L 372.86137 230.920647 
L 376.530411 226.026861 
L 377.753425 223.269789 
L 378.976438 223.8901 
L 380.199452 218.996321 
L 381.422466 224.648297 
L 385.091507 234.918405 
L 386.314521 234.091261 
L 387.537534 236.296913 
L 388.760548 233.470894 
L 389.983562 248.772611 
L 393.652603 250.357946 
L 394.875616 244.774854 
L 396.09863 247.256216 
L 397.321644 243.465285 
L 398.544658 262.075453 
L 402.213699 271.449477 
L 403.436712 260.765884 
L 404.659726 255.182792 
L 405.88274 246.911615 
L 407.105753 244.91274 
L 411.997808 251.116143 
L 413.220822 247.394103 
L 414.443836 244.568083 
L 415.666849 239.467534 
L 419.33589 237.399712 
L 420.558904 234.366978 
L 421.781918 238.15791 
L 423.004932 224.924014 
L 424.227945 224.992954 
L 427.896986 217.755636 
L 429.12 217.479926 
L 430.343014 216.859615 
L 431.566027 220.512716 
L 432.789041 225.820042 
L 436.458082 234.918405 
L 437.681096 239.536474 
L 438.90411 196.250571 
L 440.127123 186.669777 
L 441.350137 187.565805 
L 445.019178 174.883281 
L 446.242192 185.704753 
L 447.465205 176.675386 
L 448.688219 172.170879 
L 449.911233 161.013579 
L 453.580274 154.845879 
L 454.803288 151.796714 
L 456.026301 157.41 
L 457.249315 157.8951 
L 458.472329 156.1626 
L 462.14137 147.153579 
L 463.364384 147.846621 
L 465.810411 149.925586 
L 467.033425 147.985193 
L 470.702466 153.875686 
L 471.925479 151.519514 
L 473.148493 157.202107 
L 474.371507 160.3899 
L 475.594521 164.755786 
L 479.263562 165.5874 
L 480.486575 171.27 
L 481.709589 170.577014 
L 482.932603 166.211079 
L 484.155616 159.281079 
L 489.047671 159.489021 
L 490.270685 154.915193 
L 491.493699 174.596421 
L 492.716712 191.159121 
L 496.385753 175.150786 
L 497.608767 157.756521 
L 500.054795 104.9499 
L 501.277808 109.454414 
L 504.946849 118.740586 
L 507.392877 118.948479 
L 508.61589 111.533379 
L 509.838904 124.769707 
L 513.507945 123.591621 
L 514.730959 122.136328 
L 515.953973 116.176521 
L 517.176986 128.4426 
L 518.4 122.413479 
L 518.4 122.413479 
" style="fill:none;stroke:#4c72b0;stroke-linecap:round;stroke-width:1.75;"/>
   </g>
   <g id="patch_3">
    <path d="M 72 316.8 
L 72 39.6 
" style="fill:none;"/>
   </g>
   <g id="patch_4">
    <path d="M 72 39.6 
L 518.4 39.6 
" style="fill:none;"/>
   </g>
   <g id="patch_5">
    <path d="M 72 316.8 
L 518.4 316.8 
" style="fill:none;"/>
   </g>
   <g id="patch_6">
    <path d="M 518.4 316.8 
L 518.4 39.6 
" style="fill:none;"/>
   </g>
   <g id="text_24">
    <!-- 애플 주가 -->
    <defs>
     <path d="M 17 77 
L 17 83.296875 
L 83.015625 83.296875 
L 83.015625 77 
z
M 15.828125 52.59375 
L 15.828125 58.890625 
L 29.890625 58.890625 
L 29 73.578125 
L 36.1875 73.578125 
L 37.203125 58.890625 
L 62.796875 58.890625 
L 63.8125 73.578125 
L 71 73.578125 
L 70.125 58.890625 
L 84.1875 58.890625 
L 84.1875 52.59375 
z
M 6.296875 37.703125 
L 6.296875 44.1875 
L 93.703125 44.1875 
L 93.703125 37.703125 
z
M 20.703125 -6.5 
L 20.703125 14.796875 
L 72.125 14.796875 
L 72.125 23.09375 
L 20.703125 23.09375 
L 20.703125 29.5 
L 79.296875 29.5 
L 79.296875 8.5 
L 27.875 8.5 
L 27.875 0 
L 81.78125 0 
L 81.78125 -6.5 
z
" id="MalgunGothic-d50c"/>
     <path d="M 79.203125 -8.796875 
L 79.203125 39.890625 
L 67.390625 39.890625 
L 67.390625 -5.90625 
L 60.203125 -5.90625 
L 60.203125 83.5 
L 67.390625 83.5 
L 67.390625 46.390625 
L 79.203125 46.390625 
L 79.203125 85.40625 
L 86.53125 85.40625 
L 86.53125 -8.796875 
z
M 30.421875 14.984375 
Q 20.75 14.984375 15.515625 23.109375 
Q 10.296875 31.25 10.296875 47.125 
Q 10.296875 62.9375 15.515625 71.015625 
Q 20.75 79.109375 30.421875 79.109375 
Q 39.984375 79.109375 45.234375 71.046875 
Q 50.484375 62.984375 50.484375 47.125 
Q 50.484375 31.203125 45.234375 23.09375 
Q 39.984375 14.984375 30.421875 14.984375 
M 30.421875 72.515625 
Q 17.28125 72.515625 17.28125 47.125 
Q 17.28125 21.578125 30.421875 21.578125 
Q 43.40625 21.578125 43.40625 47.125 
Q 43.40625 72.515625 30.421875 72.515625 
" id="MalgunGothic-c560"/>
    </defs>
    <g style="fill:#262626;" transform="translate(269.090625 34.6)scale(0.12 -0.12)">
     <use xlink:href="#MalgunGothic-c560"/>
     <use x="100.0" xlink:href="#MalgunGothic-d50c"/>
     <use x="200.0" xlink:href="#MalgunGothic-20"/>
     <use x="235.15625" xlink:href="#MalgunGothic-c8fc"/>
     <use x="335.15625" xlink:href="#MalgunGothic-ac00"/>
    </g>
   </g>
  </g>
 </g>
 <defs>
  <clipPath id="p9a8ee7c60b">
   <rect height="277.2" width="446.4" x="72.0" y="39.6"/>
  </clipPath>
 </defs>
</svg>
