<?xml version="1.0" encoding="utf-8" standalone="no"?>
<!DOCTYPE svg PUBLIC "-//W3C//DTD SVG 1.1//EN"
  "http://www.w3.org/Graphics/SVG/1.1/DTD/svg11.dtd">
<!-- Created with matplotlib (http://matplotlib.org/) -->
<svg height="576pt" version="1.1" viewBox="0 0 720 576" width="720pt" xmlns="http://www.w3.org/2000/svg" xmlns:xlink="http://www.w3.org/1999/xlink">
 <defs>
  <style type="text/css">
*{stroke-linecap:butt;stroke-linejoin:round;stroke-miterlimit:100000;}
  </style>
 </defs>
 <g id="figure_1">
  <g id="patch_1">
   <path d="M 0 576 
L 720 576 
L 720 0 
L 0 0 
z
" style="fill:#ffffff;"/>
  </g>
  <g id="axes_1">
   <g id="patch_2">
    <path d="M 90 460.8 
L 648 460.8 
L 648 57.6 
L 90 57.6 
z
" style="fill:#eaeaf2;"/>
   </g>
   <g id="matplotlib.axis_1">
    <g id="xtick_1">
     <g id="line2d_1">
      <path clip-path="url(#p71e14e7243)" d="M 130.402253 460.8 
L 130.402253 57.6 
" style="fill:none;stroke:#ffffff;stroke-linecap:round;"/>
     </g>
     <g id="line2d_2">
      <defs>
       <path d="M 0 0 
L 0 0 
" id="macdb9f5151" style="stroke:#262626;"/>
      </defs>
      <g>
       <use style="fill:#262626;stroke:#262626;" x="130.402252615" xlink:href="#macdb9f5151" y="460.8"/>
      </g>
     </g>
     <g id="line2d_3">
      <g>
       <use style="fill:#262626;stroke:#262626;" x="130.402252615" xlink:href="#macdb9f5151" y="57.6"/>
      </g>
     </g>
     <g id="text_1">
      <!-- Nov 2009 -->
      <defs>
       <path d="M 16.40625 -2.90625 
Q 16.40625 -4.296875 15 -4.296875 
L 10.5 -4.296875 
Q 9.09375 -4.296875 9.09375 -2.90625 
L 9.09375 67.09375 
Q 9.09375 69.203125 9.4375 69.546875 
Q 9.796875 69.90625 11.90625 69.90625 
L 16.5 69.90625 
Q 17.796875 69.90625 18.25 69.65625 
Q 18.703125 69.40625 19.203125 68.5 
L 56.90625 3.796875 
L 56.90625 68.5 
Q 56.90625 69.90625 58.296875 69.90625 
L 62.703125 69.90625 
Q 64.09375 69.90625 64.09375 68.5 
L 64.09375 -1.5 
Q 64.09375 -3.59375 63.75 -3.9375 
Q 63.40625 -4.296875 61.296875 -4.296875 
L 55.203125 -4.296875 
Q 54.40625 -4.296875 54.046875 -4.09375 
Q 53.703125 -3.90625 53.203125 -3.09375 
L 16.40625 60.5 
L 16.40625 -2.90625 
z
" id="NanumGothic-4e"/>
       <path d="M 28.796875 -3 
Q 28.296875 -4.296875 26.796875 -4.296875 
L 21.90625 -4.296875 
Q 20.40625 -4.296875 20 -3 
L 2.40625 48.40625 
Q 2.203125 48.90625 2.5 49.34375 
Q 2.796875 49.796875 3.40625 49.796875 
L 7.90625 49.796875 
Q 9.09375 49.796875 9.703125 48.40625 
L 24.5 2.59375 
L 39.90625 48.40625 
Q 40.09375 49 40.59375 49.390625 
Q 41.09375 49.796875 41.703125 49.796875 
L 46.09375 49.796875 
Q 46.703125 49.796875 47 49.34375 
Q 47.296875 48.90625 47.09375 48.40625 
z
" id="NanumGothic-76"/>
       <path d="M 9 -4.703125 
Q 7.90625 -4.703125 7.34375 -4.640625 
Q 6.796875 -4.59375 6.546875 -4.34375 
Q 6.296875 -4.09375 6.25 -3.546875 
Q 6.203125 -3 6.203125 -1.90625 
L 6.296875 0.296875 
Q 6.296875 1.59375 7.09375 2.40625 
L 23.59375 20.59375 
Q 42 40.5 42 50.796875 
Q 42 56.796875 38 60.796875 
Q 34.09375 64.703125 28.296875 64.703125 
Q 20.203125 64.703125 11.40625 60.203125 
Q 10 59.5 9.796875 60.796875 
L 9.203125 64.09375 
Q 8.90625 65.796875 10.203125 66.203125 
Q 15.296875 68.5 19.390625 69.59375 
Q 23.5 70.703125 27.796875 70.703125 
Q 37.40625 70.703125 43.09375 65.90625 
Q 49.5 60.703125 49.5 51.09375 
Q 49.5 47.40625 47.703125 43 
Q 45.90625 38.59375 42.703125 33.796875 
Q 40.703125 31 37.046875 26.5 
Q 33.40625 22 28.703125 16.90625 
Q 25.203125 13.09375 21.75 9.1875 
Q 18.296875 5.296875 14.796875 1.5 
L 49.796875 1.5 
Q 51.203125 1.5 51.203125 0.09375 
L 51.203125 -3.296875 
Q 51.203125 -4.703125 49.796875 -4.703125 
z
" id="NanumGothic-32"/>
       <path d="M 47.90625 32.703125 
Q 47.90625 64.09375 30.703125 64.09375 
Q 13.5 64.09375 13.5 32.703125 
Q 13.5 1.203125 30.703125 1.203125 
Q 47.90625 1.203125 47.90625 32.703125 
M 55.09375 32.703125 
Q 55.09375 -5.09375 30.703125 -5.09375 
Q 6.09375 -5.09375 6.09375 32.703125 
Q 6.09375 48.40625 10.90625 58.203125 
Q 17 70.5 30.703125 70.5 
Q 44.203125 70.5 50.40625 58.203125 
Q 52.703125 53.296875 53.890625 47 
Q 55.09375 40.703125 55.09375 32.703125 
" id="NanumGothic-30"/>
       <path d="M 46.796875 45.703125 
Q 46.796875 53.5 42.59375 58.796875 
Q 38 64.5 30.40625 64.5 
Q 22.296875 64.5 17.703125 59.40625 
Q 13.203125 54.59375 13.203125 46.59375 
Q 13.203125 38.09375 17.296875 33.40625 
L 17.203125 33.40625 
Q 21.5 28.796875 29.40625 28.796875 
Q 37.59375 28.796875 42.203125 33.40625 
Q 46.796875 38.203125 46.796875 45.703125 
M 10.203125 -4 
Q 8.703125 -3.703125 8.90625 -1.703125 
L 9.203125 1.796875 
Q 9.40625 3 10.796875 2.40625 
Q 13.296875 1.40625 15.84375 1 
Q 18.40625 0.59375 21.59375 0.59375 
Q 28.59375 0.59375 33.796875 3.34375 
Q 39 6.09375 42.296875 11.203125 
Q 47.296875 19.59375 47.5 32.5 
Q 41.40625 22.703125 29.40625 22.703125 
Q 20.203125 22.703125 14 27.40625 
Q 6.09375 33.5 6.09375 46.09375 
Q 6.09375 57.203125 12.59375 63.796875 
Q 19.203125 70.703125 30.59375 70.703125 
Q 54.59375 70.703125 54.59375 35.296875 
Q 54.59375 -5.40625 20.90625 -5.40625 
Q 16.296875 -5.40625 10.203125 -4 
" id="NanumGothic-39"/>
       <path d="M 48.90625 22.703125 
Q 48.90625 27.40625 47.65625 31.5 
Q 46.40625 35.59375 44.203125 38.796875 
Q 39 45.203125 30.703125 45.203125 
Q 26.5 45.203125 23.140625 43.546875 
Q 19.796875 41.90625 17.203125 38.796875 
Q 14.90625 35.59375 13.65625 31.5 
Q 12.40625 27.40625 12.40625 22.703125 
Q 12.40625 17.90625 13.65625 13.796875 
Q 14.90625 9.703125 17.203125 6.59375 
Q 22.5 0.09375 30.703125 0.09375 
Q 34.90625 0.09375 38.25 1.796875 
Q 41.59375 3.5 44.203125 6.59375 
Q 46.40625 9.703125 47.65625 13.796875 
Q 48.90625 17.90625 48.90625 22.703125 
M 56.296875 22.703125 
Q 56.296875 16.796875 54.59375 11.75 
Q 52.90625 6.703125 50.09375 2.90625 
Q 46.59375 -1.296875 41.75 -3.59375 
Q 36.90625 -5.90625 30.703125 -5.90625 
Q 24.5 -5.90625 19.59375 -3.59375 
Q 14.703125 -1.296875 11.203125 2.90625 
Q 8.40625 6.703125 6.75 11.75 
Q 5.09375 16.796875 5.09375 22.703125 
Q 5.09375 34.796875 11.203125 42.5 
Q 18.203125 51.203125 30.703125 51.203125 
Q 37 51.203125 41.796875 49.046875 
Q 46.59375 46.90625 50.09375 42.5 
Q 56.296875 34.59375 56.296875 22.703125 
" id="NanumGothic-6f"/>
       <path id="NanumGothic-20"/>
      </defs>
      <g style="fill:#262626;" transform="translate(90.2714510401 496.916687919)rotate(-30.0)scale(0.1 -0.1)">
       <use xlink:href="#NanumGothic-4e"/>
       <use x="72.69998168945312" xlink:href="#NanumGothic-6f"/>
       <use x="133.2999725341797" xlink:href="#NanumGothic-76"/>
       <use x="181.69996643066406" xlink:href="#NanumGothic-20"/>
       <use x="209.699951171875" xlink:href="#NanumGothic-32"/>
       <use x="270.29994201660156" xlink:href="#NanumGothic-30"/>
       <use x="330.8999328613281" xlink:href="#NanumGothic-30"/>
       <use x="391.4999237060547" xlink:href="#NanumGothic-39"/>
      </g>
     </g>
    </g>
    <g id="xtick_2">
     <g id="line2d_4">
      <path clip-path="url(#p71e14e7243)" d="M 184.271923 460.8 
L 184.271923 57.6 
" style="fill:none;stroke:#ffffff;stroke-linecap:round;"/>
     </g>
     <g id="line2d_5">
      <g>
       <use style="fill:#262626;stroke:#262626;" x="184.271922767" xlink:href="#macdb9f5151" y="460.8"/>
      </g>
     </g>
     <g id="line2d_6">
      <g>
       <use style="fill:#262626;stroke:#262626;" x="184.271922767" xlink:href="#macdb9f5151" y="57.6"/>
      </g>
     </g>
     <g id="text_2">
      <!-- Mar 2010 -->
      <defs>
       <path d="M 36.90625 -3.296875 
Q 36.90625 -4.703125 35.5 -4.703125 
L 31.40625 -4.703125 
Q 30 -4.703125 30 -3.296875 
L 30 61.703125 
Q 26.90625 59.09375 24.203125 56.796875 
Q 21.5 54.5 18.5 51.90625 
Q 17.40625 51 16.5 52.09375 
L 14.5 54.5 
Q 14.203125 55 14.203125 55.546875 
Q 14.203125 56.09375 14.703125 56.5 
L 30.203125 69.5 
Q 30.59375 69.90625 31.40625 69.90625 
L 34.09375 69.90625 
Q 36.203125 69.90625 36.546875 69.546875 
Q 36.90625 69.203125 36.90625 67.09375 
z
" id="NanumGothic-31"/>
       <path d="M 86.296875 -2.90625 
Q 86.296875 -4.296875 84.90625 -4.296875 
L 80.40625 -4.296875 
Q 79 -4.296875 79 -2.90625 
L 79 63.40625 
Q 71.59375 45 65.703125 30.5 
Q 63.203125 24.296875 60.796875 18.34375 
Q 58.40625 12.40625 56.5 7.75 
Q 54.59375 3.09375 53.390625 0.1875 
Q 52.203125 -2.703125 52.203125 -2.796875 
Q 51.703125 -3.796875 50.703125 -3.796875 
L 46.203125 -3.796875 
Q 45.5 -3.796875 45.203125 -3.546875 
Q 44.90625 -3.296875 44.703125 -2.796875 
L 17.09375 63.40625 
L 17.09375 -2.90625 
Q 17.09375 -4.296875 15.703125 -4.296875 
L 11.203125 -4.296875 
Q 9.796875 -4.296875 9.796875 -2.90625 
L 9.796875 67.09375 
Q 9.796875 69.203125 10.140625 69.546875 
Q 10.5 69.90625 12.59375 69.90625 
L 20.09375 69.90625 
Q 20.90625 69.90625 21.25 69.703125 
Q 21.59375 69.5 21.90625 68.703125 
L 48.5 4 
L 74.296875 68.796875 
Q 74.703125 69.90625 75.90625 69.90625 
L 83.5 69.90625 
Q 85.59375 69.90625 85.9375 69.546875 
Q 86.296875 69.203125 86.296875 67.09375 
z
" id="NanumGothic-4d"/>
       <path d="M 40.09375 23.90625 
L 38.203125 23.90625 
Q 32.59375 24.09375 28.25 23.4375 
Q 23.90625 22.796875 21 21.703125 
Q 16.796875 20.203125 14.6875 17.25 
Q 12.59375 14.296875 12.59375 10.203125 
Q 12.59375 7.703125 13.390625 5.546875 
Q 14.203125 3.40625 15.90625 2.203125 
Q 18.90625 -0.203125 23.90625 -0.203125 
Q 27.40625 -0.203125 30.34375 1.1875 
Q 33.296875 2.59375 35.5 5.1875 
Q 37.703125 7.796875 38.890625 11.640625 
Q 40.09375 15.5 40.09375 20.5 
z
M 11.59375 41.40625 
Q 11.09375 41.09375 10.640625 41.25 
Q 10.203125 41.40625 10.203125 41.90625 
L 10.203125 45.703125 
Q 10.203125 47.09375 11.59375 47.796875 
Q 15.09375 49.703125 19.046875 50.453125 
Q 23 51.203125 27.703125 51.203125 
Q 37.703125 51.203125 42.296875 46.453125 
Q 46.90625 41.703125 46.90625 32.09375 
L 46.90625 7 
Q 46.90625 4 47 1.640625 
Q 47.09375 -0.703125 47.296875 -2.90625 
Q 47.296875 -4.296875 45.90625 -4.296875 
L 42.296875 -4.296875 
Q 40.90625 -4.296875 40.90625 -2.90625 
L 40.90625 4.796875 
Q 38.796875 -0.296875 33.84375 -3.09375 
Q 28.90625 -5.90625 23.09375 -5.90625 
Q 13 -5.90625 8.296875 0 
Q 6.703125 2 5.890625 4.640625 
Q 5.09375 7.296875 5.09375 9.90625 
Q 5.09375 16 7.9375 20.390625 
Q 10.796875 24.796875 16.703125 27 
Q 23.90625 29.59375 38.796875 29.59375 
L 40.09375 29.59375 
L 40.09375 32.59375 
Q 40.09375 38.90625 37.25 42.203125 
Q 34.40625 45.5 27.703125 45.5 
Q 23.203125 45.5 19.203125 44.546875 
Q 15.203125 43.59375 11.59375 41.40625 
" id="NanumGothic-61"/>
       <path d="M 34.703125 43.703125 
Q 32.90625 44.296875 29.90625 44.296875 
Q 22.5 44.296875 18.90625 37 
Q 16.09375 31.296875 16.09375 22.40625 
L 16.09375 -2.90625 
Q 16.09375 -4.296875 14.703125 -4.296875 
L 10.796875 -4.296875 
Q 9.40625 -4.296875 9.40625 -2.90625 
L 9.40625 37.703125 
Q 9.40625 41.296875 9.34375 43.546875 
Q 9.296875 45.796875 9.203125 48.40625 
Q 9.203125 49.796875 10.59375 49.796875 
L 14.296875 49.796875 
Q 15.703125 49.796875 15.703125 48.40625 
L 15.703125 38.59375 
Q 20.59375 51.203125 30.09375 51.203125 
Q 32.40625 51.203125 34.703125 50.59375 
Q 35.296875 50.40625 35.75 49.953125 
Q 36.203125 49.5 36.203125 48.703125 
L 36.203125 44.5 
Q 36.203125 43.90625 35.703125 43.703125 
Q 35.203125 43.5 34.703125 43.703125 
" id="NanumGothic-72"/>
      </defs>
      <g style="fill:#262626;" transform="translate(143.621505951 497.216687919)rotate(-30.0)scale(0.1 -0.1)">
       <use xlink:href="#NanumGothic-4d"/>
       <use x="96.89999389648438" xlink:href="#NanumGothic-61"/>
       <use x="151.3999786376953" xlink:href="#NanumGothic-72"/>
       <use x="187.69996643066406" xlink:href="#NanumGothic-20"/>
       <use x="215.699951171875" xlink:href="#NanumGothic-32"/>
       <use x="276.29994201660156" xlink:href="#NanumGothic-30"/>
       <use x="336.8999328613281" xlink:href="#NanumGothic-31"/>
       <use x="397.4999237060547" xlink:href="#NanumGothic-30"/>
      </g>
     </g>
    </g>
    <g id="xtick_3">
     <g id="line2d_7">
      <path clip-path="url(#p71e14e7243)" d="M 239.039421 460.8 
L 239.039421 57.6 
" style="fill:none;stroke:#ffffff;stroke-linecap:round;"/>
     </g>
     <g id="line2d_8">
      <g>
       <use style="fill:#262626;stroke:#262626;" x="239.039420756" xlink:href="#macdb9f5151" y="460.8"/>
      </g>
     </g>
     <g id="line2d_9">
      <g>
       <use style="fill:#262626;stroke:#262626;" x="239.039420756" xlink:href="#macdb9f5151" y="57.6"/>
      </g>
     </g>
     <g id="text_3">
      <!-- Jul 2010 -->
      <defs>
       <path d="M 52.296875 -2.90625 
Q 52.296875 -4.296875 50.90625 -4.296875 
L 47.296875 -4.296875 
Q 45.90625 -4.296875 45.90625 -2.90625 
L 45.90625 5.40625 
Q 43.296875 -0.59375 38.9375 -3.25 
Q 34.59375 -5.90625 28 -5.90625 
Q 9.296875 -5.90625 9.296875 15 
L 9.296875 48.40625 
Q 9.296875 49.796875 10.703125 49.796875 
L 14.703125 49.796875 
Q 16.09375 49.796875 16.09375 48.40625 
L 16.09375 16.796875 
Q 16.09375 -0.203125 29.09375 -0.203125 
Q 32.90625 -0.203125 35.953125 1.4375 
Q 39 3.09375 41.09375 5.9375 
Q 43.203125 8.796875 44.296875 12.59375 
Q 45.40625 16.40625 45.296875 20.59375 
L 45.296875 48.40625 
Q 45.296875 49.796875 46.703125 49.796875 
L 50.703125 49.796875 
Q 52.09375 49.796875 52.09375 48.40625 
L 52.09375 8.203125 
Q 52.09375 4.90625 52.140625 2.296875 
Q 52.203125 -0.296875 52.296875 -2.90625 
" id="NanumGothic-75"/>
       <path d="M 16.5 -2.90625 
Q 16.5 -4.296875 15.09375 -4.296875 
L 10.703125 -4.296875 
Q 9.296875 -4.296875 9.296875 -2.90625 
L 9.296875 73.796875 
Q 9.296875 75.203125 10.703125 75.203125 
L 15.09375 75.203125 
Q 16.5 75.203125 16.5 73.796875 
L 16.5 -2.90625 
z
" id="NanumGothic-6c"/>
       <path d="M 3.796875 -5 
Q 3 -4.796875 2.703125 -4.296875 
Q 2.40625 -3.796875 2.40625 -3.203125 
L 2.40625 0.40625 
Q 2.40625 1.703125 3.796875 1.40625 
Q 4.90625 1 6.34375 0.84375 
Q 7.796875 0.703125 9.296875 0.703125 
Q 20.40625 0.703125 20.40625 14.59375 
L 20.40625 68.296875 
Q 20.40625 69.703125 21.796875 69.703125 
L 26.296875 69.703125 
Q 27.703125 69.703125 27.703125 68.296875 
L 27.703125 14.703125 
Q 27.703125 5.703125 23.703125 0.296875 
Q 19 -5.59375 10.09375 -5.59375 
Q 8.40625 -5.59375 6.796875 -5.390625 
Q 5.203125 -5.203125 3.796875 -5 
" id="NanumGothic-4a"/>
      </defs>
      <g style="fill:#262626;" transform="translate(204.157545027 493.886219169)rotate(-30.0)scale(0.1 -0.1)">
       <use xlink:href="#NanumGothic-4a"/>
       <use x="36.29998779296875" xlink:href="#NanumGothic-75"/>
       <use x="96.89997863769531" xlink:href="#NanumGothic-6c"/>
       <use x="121.0999755859375" xlink:href="#NanumGothic-20"/>
       <use x="149.09996032714844" xlink:href="#NanumGothic-32"/>
       <use x="209.699951171875" xlink:href="#NanumGothic-30"/>
       <use x="270.29994201660156" xlink:href="#NanumGothic-31"/>
       <use x="330.8999328613281" xlink:href="#NanumGothic-30"/>
      </g>
     </g>
    </g>
    <g id="xtick_4">
     <g id="line2d_10">
      <path clip-path="url(#p71e14e7243)" d="M 294.255833 460.8 
L 294.255833 57.6 
" style="fill:none;stroke:#ffffff;stroke-linecap:round;"/>
     </g>
     <g id="line2d_11">
      <g>
       <use style="fill:#262626;stroke:#262626;" x="294.255832663" xlink:href="#macdb9f5151" y="460.8"/>
      </g>
     </g>
     <g id="line2d_12">
      <g>
       <use style="fill:#262626;stroke:#262626;" x="294.255832663" xlink:href="#macdb9f5151" y="57.6"/>
      </g>
     </g>
     <g id="text_4">
      <!-- Nov 2010 -->
      <g style="fill:#262626;" transform="translate(254.125031088 496.916687919)rotate(-30.0)scale(0.1 -0.1)">
       <use xlink:href="#NanumGothic-4e"/>
       <use x="72.69998168945312" xlink:href="#NanumGothic-6f"/>
       <use x="133.2999725341797" xlink:href="#NanumGothic-76"/>
       <use x="181.69996643066406" xlink:href="#NanumGothic-20"/>
       <use x="209.699951171875" xlink:href="#NanumGothic-32"/>
       <use x="270.29994201660156" xlink:href="#NanumGothic-30"/>
       <use x="330.8999328613281" xlink:href="#NanumGothic-31"/>
       <use x="391.4999237060547" xlink:href="#NanumGothic-30"/>
      </g>
     </g>
    </g>
    <g id="xtick_5">
     <g id="line2d_13">
      <path clip-path="url(#p71e14e7243)" d="M 348.125503 460.8 
L 348.125503 57.6 
" style="fill:none;stroke:#ffffff;stroke-linecap:round;"/>
     </g>
     <g id="line2d_14">
      <g>
       <use style="fill:#262626;stroke:#262626;" x="348.125502816" xlink:href="#macdb9f5151" y="460.8"/>
      </g>
     </g>
     <g id="line2d_15">
      <g>
       <use style="fill:#262626;stroke:#262626;" x="348.125502816" xlink:href="#macdb9f5151" y="57.6"/>
      </g>
     </g>
     <g id="text_5">
      <!-- Mar 2011 -->
      <g style="fill:#262626;" transform="translate(307.475085999 497.216687919)rotate(-30.0)scale(0.1 -0.1)">
       <use xlink:href="#NanumGothic-4d"/>
       <use x="96.89999389648438" xlink:href="#NanumGothic-61"/>
       <use x="151.3999786376953" xlink:href="#NanumGothic-72"/>
       <use x="187.69996643066406" xlink:href="#NanumGothic-20"/>
       <use x="215.699951171875" xlink:href="#NanumGothic-32"/>
       <use x="276.29994201660156" xlink:href="#NanumGothic-30"/>
       <use x="336.8999328613281" xlink:href="#NanumGothic-31"/>
       <use x="397.4999237060547" xlink:href="#NanumGothic-31"/>
      </g>
     </g>
    </g>
    <g id="xtick_6">
     <g id="line2d_16">
      <path clip-path="url(#p71e14e7243)" d="M 402.893001 460.8 
L 402.893001 57.6 
" style="fill:none;stroke:#ffffff;stroke-linecap:round;"/>
     </g>
     <g id="line2d_17">
      <g>
       <use style="fill:#262626;stroke:#262626;" x="402.893000804" xlink:href="#macdb9f5151" y="460.8"/>
      </g>
     </g>
     <g id="line2d_18">
      <g>
       <use style="fill:#262626;stroke:#262626;" x="402.893000804" xlink:href="#macdb9f5151" y="57.6"/>
      </g>
     </g>
     <g id="text_6">
      <!-- Jul 2011 -->
      <g style="fill:#262626;" transform="translate(368.011125076 493.886219169)rotate(-30.0)scale(0.1 -0.1)">
       <use xlink:href="#NanumGothic-4a"/>
       <use x="36.29998779296875" xlink:href="#NanumGothic-75"/>
       <use x="96.89997863769531" xlink:href="#NanumGothic-6c"/>
       <use x="121.0999755859375" xlink:href="#NanumGothic-20"/>
       <use x="149.09996032714844" xlink:href="#NanumGothic-32"/>
       <use x="209.699951171875" xlink:href="#NanumGothic-30"/>
       <use x="270.29994201660156" xlink:href="#NanumGothic-31"/>
       <use x="330.8999328613281" xlink:href="#NanumGothic-31"/>
      </g>
     </g>
    </g>
    <g id="xtick_7">
     <g id="line2d_19">
      <path clip-path="url(#p71e14e7243)" d="M 458.109413 460.8 
L 458.109413 57.6 
" style="fill:none;stroke:#ffffff;stroke-linecap:round;"/>
     </g>
     <g id="line2d_20">
      <g>
       <use style="fill:#262626;stroke:#262626;" x="458.109412711" xlink:href="#macdb9f5151" y="460.8"/>
      </g>
     </g>
     <g id="line2d_21">
      <g>
       <use style="fill:#262626;stroke:#262626;" x="458.109412711" xlink:href="#macdb9f5151" y="57.6"/>
      </g>
     </g>
     <g id="text_7">
      <!-- Nov 2011 -->
      <g style="fill:#262626;" transform="translate(417.978611137 496.916687919)rotate(-30.0)scale(0.1 -0.1)">
       <use xlink:href="#NanumGothic-4e"/>
       <use x="72.69998168945312" xlink:href="#NanumGothic-6f"/>
       <use x="133.2999725341797" xlink:href="#NanumGothic-76"/>
       <use x="181.69996643066406" xlink:href="#NanumGothic-20"/>
       <use x="209.699951171875" xlink:href="#NanumGothic-32"/>
       <use x="270.29994201660156" xlink:href="#NanumGothic-30"/>
       <use x="330.8999328613281" xlink:href="#NanumGothic-31"/>
       <use x="391.4999237060547" xlink:href="#NanumGothic-31"/>
      </g>
     </g>
    </g>
    <g id="xtick_8">
     <g id="line2d_22">
      <path clip-path="url(#p71e14e7243)" d="M 512.427997 460.8 
L 512.427997 57.6 
" style="fill:none;stroke:#ffffff;stroke-linecap:round;"/>
     </g>
     <g id="line2d_23">
      <g>
       <use style="fill:#262626;stroke:#262626;" x="512.427996782" xlink:href="#macdb9f5151" y="460.8"/>
      </g>
     </g>
     <g id="line2d_24">
      <g>
       <use style="fill:#262626;stroke:#262626;" x="512.427996782" xlink:href="#macdb9f5151" y="57.6"/>
      </g>
     </g>
     <g id="text_8">
      <!-- Mar 2012 -->
      <g style="fill:#262626;" transform="translate(471.777579965 497.216687919)rotate(-30.0)scale(0.1 -0.1)">
       <use xlink:href="#NanumGothic-4d"/>
       <use x="96.89999389648438" xlink:href="#NanumGothic-61"/>
       <use x="151.3999786376953" xlink:href="#NanumGothic-72"/>
       <use x="187.69996643066406" xlink:href="#NanumGothic-20"/>
       <use x="215.699951171875" xlink:href="#NanumGothic-32"/>
       <use x="276.29994201660156" xlink:href="#NanumGothic-30"/>
       <use x="336.8999328613281" xlink:href="#NanumGothic-31"/>
       <use x="397.4999237060547" xlink:href="#NanumGothic-32"/>
      </g>
     </g>
    </g>
    <g id="xtick_9">
     <g id="line2d_25">
      <path clip-path="url(#p71e14e7243)" d="M 567.195495 460.8 
L 567.195495 57.6 
" style="fill:none;stroke:#ffffff;stroke-linecap:round;"/>
     </g>
     <g id="line2d_26">
      <g>
       <use style="fill:#262626;stroke:#262626;" x="567.195494771" xlink:href="#macdb9f5151" y="460.8"/>
      </g>
     </g>
     <g id="line2d_27">
      <g>
       <use style="fill:#262626;stroke:#262626;" x="567.195494771" xlink:href="#macdb9f5151" y="57.6"/>
      </g>
     </g>
     <g id="text_9">
      <!-- Jul 2012 -->
      <g style="fill:#262626;" transform="translate(532.313619042 493.886219169)rotate(-30.0)scale(0.1 -0.1)">
       <use xlink:href="#NanumGothic-4a"/>
       <use x="36.29998779296875" xlink:href="#NanumGothic-75"/>
       <use x="96.89997863769531" xlink:href="#NanumGothic-6c"/>
       <use x="121.0999755859375" xlink:href="#NanumGothic-20"/>
       <use x="149.09996032714844" xlink:href="#NanumGothic-32"/>
       <use x="209.699951171875" xlink:href="#NanumGothic-30"/>
       <use x="270.29994201660156" xlink:href="#NanumGothic-31"/>
       <use x="330.8999328613281" xlink:href="#NanumGothic-32"/>
      </g>
     </g>
    </g>
    <g id="xtick_10">
     <g id="line2d_28">
      <path clip-path="url(#p71e14e7243)" d="M 622.411907 460.8 
L 622.411907 57.6 
" style="fill:none;stroke:#ffffff;stroke-linecap:round;"/>
     </g>
     <g id="line2d_29">
      <g>
       <use style="fill:#262626;stroke:#262626;" x="622.411906677" xlink:href="#macdb9f5151" y="460.8"/>
      </g>
     </g>
     <g id="line2d_30">
      <g>
       <use style="fill:#262626;stroke:#262626;" x="622.411906677" xlink:href="#macdb9f5151" y="57.6"/>
      </g>
     </g>
     <g id="text_10">
      <!-- Nov 2012 -->
      <g style="fill:#262626;" transform="translate(582.281105103 496.916687919)rotate(-30.0)scale(0.1 -0.1)">
       <use xlink:href="#NanumGothic-4e"/>
       <use x="72.69998168945312" xlink:href="#NanumGothic-6f"/>
       <use x="133.2999725341797" xlink:href="#NanumGothic-76"/>
       <use x="181.69996643066406" xlink:href="#NanumGothic-20"/>
       <use x="209.699951171875" xlink:href="#NanumGothic-32"/>
       <use x="270.29994201660156" xlink:href="#NanumGothic-30"/>
       <use x="330.8999328613281" xlink:href="#NanumGothic-31"/>
       <use x="391.4999237060547" xlink:href="#NanumGothic-32"/>
      </g>
     </g>
    </g>
   </g>
   <g id="matplotlib.axis_2">
    <g id="ytick_1">
     <g id="line2d_31">
      <path clip-path="url(#p71e14e7243)" d="M 90 460.8 
L 648 460.8 
" style="fill:none;stroke:#ffffff;stroke-linecap:round;"/>
     </g>
     <g id="line2d_32">
      <g>
       <use style="fill:#262626;stroke:#262626;" x="90.0" xlink:href="#macdb9f5151" y="460.8"/>
      </g>
     </g>
     <g id="line2d_33">
      <g>
       <use style="fill:#262626;stroke:#262626;" x="648.0" xlink:href="#macdb9f5151" y="460.8"/>
      </g>
     </g>
     <g id="text_11">
      <!-- 2000 -->
      <g style="fill:#262626;" transform="translate(58.7625 463.58046875)scale(0.1 -0.1)">
       <use xlink:href="#NanumGothic-32"/>
       <use x="60.59999084472656" xlink:href="#NanumGothic-30"/>
       <use x="121.19998168945312" xlink:href="#NanumGothic-30"/>
       <use x="181.7999725341797" xlink:href="#NanumGothic-30"/>
      </g>
     </g>
    </g>
    <g id="ytick_2">
     <g id="line2d_34">
      <path clip-path="url(#p71e14e7243)" d="M 90 380.16 
L 648 380.16 
" style="fill:none;stroke:#ffffff;stroke-linecap:round;"/>
     </g>
     <g id="line2d_35">
      <g>
       <use style="fill:#262626;stroke:#262626;" x="90.0" xlink:href="#macdb9f5151" y="380.16"/>
      </g>
     </g>
     <g id="line2d_36">
      <g>
       <use style="fill:#262626;stroke:#262626;" x="648.0" xlink:href="#macdb9f5151" y="380.16"/>
      </g>
     </g>
     <g id="text_12">
      <!-- 2500 -->
      <defs>
       <path d="M 11.5 -3.203125 
Q 10.09375 -2.703125 10.09375 -1.40625 
L 10.09375 2.796875 
Q 10.09375 4.5 11.5 3.796875 
Q 15.09375 2.09375 18.546875 1.390625 
Q 22 0.703125 26.09375 0.703125 
Q 34.90625 0.703125 40.40625 5 
Q 46.40625 9.59375 46.40625 18.203125 
Q 46.40625 35.09375 27.09375 35.09375 
Q 23.296875 35.09375 20.25 34.6875 
Q 17.203125 34.296875 13.5 33.296875 
Q 12.40625 33 11.703125 33.546875 
Q 11 34.09375 11 35.203125 
L 11.59375 67.09375 
Q 11.59375 69.203125 11.9375 69.546875 
Q 12.296875 69.90625 14.40625 69.90625 
L 48.59375 69.90625 
Q 50 69.90625 50 68.5 
L 50 65.203125 
Q 50 63.796875 48.59375 63.796875 
L 18.40625 63.796875 
Q 18.296875 57.5 18.140625 51.5 
Q 18 45.5 17.90625 39.203125 
Q 22.796875 41.09375 29.796875 41.09375 
Q 40.296875 41.09375 46.796875 35.40625 
Q 53.296875 29.5 53.296875 19.59375 
Q 53.296875 7.5 45.796875 0.90625 
Q 38.59375 -5.40625 26.09375 -5.40625 
Q 21.59375 -5.40625 18.296875 -4.90625 
Q 15 -4.40625 11.5 -3.203125 
" id="NanumGothic-35"/>
      </defs>
      <g style="fill:#262626;" transform="translate(58.7625 382.94046875)scale(0.1 -0.1)">
       <use xlink:href="#NanumGothic-32"/>
       <use x="60.59999084472656" xlink:href="#NanumGothic-35"/>
       <use x="121.19998168945312" xlink:href="#NanumGothic-30"/>
       <use x="181.7999725341797" xlink:href="#NanumGothic-30"/>
      </g>
     </g>
    </g>
    <g id="ytick_3">
     <g id="line2d_37">
      <path clip-path="url(#p71e14e7243)" d="M 90 299.52 
L 648 299.52 
" style="fill:none;stroke:#ffffff;stroke-linecap:round;"/>
     </g>
     <g id="line2d_38">
      <g>
       <use style="fill:#262626;stroke:#262626;" x="90.0" xlink:href="#macdb9f5151" y="299.52"/>
      </g>
     </g>
     <g id="line2d_39">
      <g>
       <use style="fill:#262626;stroke:#262626;" x="648.0" xlink:href="#macdb9f5151" y="299.52"/>
      </g>
     </g>
     <g id="text_13">
      <!-- 3000 -->
      <defs>
       <path d="M 7.703125 -3 
Q 6.203125 -2.59375 6.40625 -0.703125 
L 6.796875 3.203125 
Q 7 4.40625 8.40625 3.796875 
Q 12.59375 2.09375 16.34375 1.390625 
Q 20.09375 0.703125 25.09375 0.59375 
Q 33 0.5 38.40625 4.59375 
Q 44.703125 8.796875 44.703125 16.90625 
Q 44.703125 31.09375 23.40625 31.09375 
L 18.203125 31.09375 
Q 16.90625 31.09375 16.90625 32.203125 
L 16.90625 35.90625 
Q 16.90625 37.203125 18.203125 37.203125 
L 18.703125 37.203125 
Q 29.40625 37.203125 35.40625 39.5 
Q 44.5 43 44.5 52.09375 
Q 44.5 55 42.953125 57.453125 
Q 41.40625 59.90625 38.796875 61.59375 
Q 36.40625 63 33.40625 63.796875 
Q 30.40625 64.59375 27.09375 64.59375 
Q 23.703125 64.59375 19.59375 63.6875 
Q 15.5 62.796875 11.703125 61.296875 
Q 10.40625 60.796875 10.203125 62.09375 
L 9.796875 65.796875 
Q 9.5 67.203125 11.09375 67.796875 
Q 15.59375 69.296875 19.5 70 
Q 23.40625 70.703125 27.796875 70.703125 
Q 37.90625 70.703125 44.296875 66.40625 
Q 51.59375 61.5 51.59375 52.09375 
Q 51.59375 45.40625 46.796875 40.5 
Q 42.796875 36.203125 36.40625 34.203125 
Q 39.59375 33.796875 42.34375 32.5 
Q 45.09375 31.203125 47.09375 28.90625 
Q 49.40625 26.40625 50.59375 23.25 
Q 51.796875 20.09375 51.796875 16.296875 
Q 51.796875 11.296875 49.75 7.25 
Q 47.703125 3.203125 43.90625 0.296875 
Q 40.203125 -2.40625 35.390625 -3.953125 
Q 30.59375 -5.5 24.703125 -5.40625 
Q 19.40625 -5.296875 15.546875 -4.796875 
Q 11.703125 -4.296875 7.703125 -3 
" id="NanumGothic-33"/>
      </defs>
      <g style="fill:#262626;" transform="translate(58.7625 302.30046875)scale(0.1 -0.1)">
       <use xlink:href="#NanumGothic-33"/>
       <use x="60.59999084472656" xlink:href="#NanumGothic-30"/>
       <use x="121.19998168945312" xlink:href="#NanumGothic-30"/>
       <use x="181.7999725341797" xlink:href="#NanumGothic-30"/>
      </g>
     </g>
    </g>
    <g id="ytick_4">
     <g id="line2d_40">
      <path clip-path="url(#p71e14e7243)" d="M 90 218.88 
L 648 218.88 
" style="fill:none;stroke:#ffffff;stroke-linecap:round;"/>
     </g>
     <g id="line2d_41">
      <g>
       <use style="fill:#262626;stroke:#262626;" x="90.0" xlink:href="#macdb9f5151" y="218.88"/>
      </g>
     </g>
     <g id="line2d_42">
      <g>
       <use style="fill:#262626;stroke:#262626;" x="648.0" xlink:href="#macdb9f5151" y="218.88"/>
      </g>
     </g>
     <g id="text_14">
      <!-- 3500 -->
      <g style="fill:#262626;" transform="translate(58.7625 221.66046875)scale(0.1 -0.1)">
       <use xlink:href="#NanumGothic-33"/>
       <use x="60.59999084472656" xlink:href="#NanumGothic-35"/>
       <use x="121.19998168945312" xlink:href="#NanumGothic-30"/>
       <use x="181.7999725341797" xlink:href="#NanumGothic-30"/>
      </g>
     </g>
    </g>
    <g id="ytick_5">
     <g id="line2d_43">
      <path clip-path="url(#p71e14e7243)" d="M 90 138.24 
L 648 138.24 
" style="fill:none;stroke:#ffffff;stroke-linecap:round;"/>
     </g>
     <g id="line2d_44">
      <g>
       <use style="fill:#262626;stroke:#262626;" x="90.0" xlink:href="#macdb9f5151" y="138.24"/>
      </g>
     </g>
     <g id="line2d_45">
      <g>
       <use style="fill:#262626;stroke:#262626;" x="648.0" xlink:href="#macdb9f5151" y="138.24"/>
      </g>
     </g>
     <g id="text_15">
      <!-- 4000 -->
      <defs>
       <path d="M 39.203125 19 
L 39.203125 63.59375 
Q 31.796875 52.40625 24.5 41.296875 
Q 17.203125 30.203125 9.703125 19 
z
M 46 -3.296875 
Q 46 -4.703125 44.59375 -4.703125 
L 40.59375 -4.703125 
Q 39.203125 -4.703125 39.203125 -3.296875 
L 39.203125 12.90625 
L 6.203125 12.90625 
Q 4.09375 12.90625 3.75 13.25 
Q 3.40625 13.59375 3.40625 15.703125 
L 3.40625 18.796875 
Q 3.40625 19.703125 3.5 20 
Q 3.59375 20.296875 4.09375 21.09375 
L 36 68.703125 
Q 36.59375 69.59375 36.84375 69.75 
Q 37.09375 69.90625 38.203125 69.90625 
L 43.203125 69.90625 
Q 45.296875 69.90625 45.640625 69.546875 
Q 46 69.203125 46 67.09375 
L 46 19 
L 55.90625 19 
Q 57.296875 19 57.296875 17.59375 
L 57.296875 14.296875 
Q 57.296875 12.90625 55.90625 12.90625 
L 46 12.90625 
z
" id="NanumGothic-34"/>
      </defs>
      <g style="fill:#262626;" transform="translate(58.7625 141.02046875)scale(0.1 -0.1)">
       <use xlink:href="#NanumGothic-34"/>
       <use x="60.59999084472656" xlink:href="#NanumGothic-30"/>
       <use x="121.19998168945312" xlink:href="#NanumGothic-30"/>
       <use x="181.7999725341797" xlink:href="#NanumGothic-30"/>
      </g>
     </g>
    </g>
    <g id="ytick_6">
     <g id="line2d_46">
      <path clip-path="url(#p71e14e7243)" d="M 90 57.6 
L 648 57.6 
" style="fill:none;stroke:#ffffff;stroke-linecap:round;"/>
     </g>
     <g id="line2d_47">
      <g>
       <use style="fill:#262626;stroke:#262626;" x="90.0" xlink:href="#macdb9f5151" y="57.6"/>
      </g>
     </g>
     <g id="line2d_48">
      <g>
       <use style="fill:#262626;stroke:#262626;" x="648.0" xlink:href="#macdb9f5151" y="57.6"/>
      </g>
     </g>
     <g id="text_16">
      <!-- 4500 -->
      <g style="fill:#262626;" transform="translate(58.7625 60.38046875)scale(0.1 -0.1)">
       <use xlink:href="#NanumGothic-34"/>
       <use x="60.59999084472656" xlink:href="#NanumGothic-35"/>
       <use x="121.19998168945312" xlink:href="#NanumGothic-30"/>
       <use x="181.7999725341797" xlink:href="#NanumGothic-30"/>
      </g>
     </g>
    </g>
   </g>
   <g id="line2d_49">
    <path clip-path="url(#p71e14e7243)" d="M 90 123.7248 
L 90.448914 133.4016 
L 90.897828 141.4656 
L 91.346742 117.2736 
L 91.795656 123.7248 
L 93.142397 114.048 
L 93.591311 117.2736 
L 94.040225 133.4016 
L 94.489139 123.7248 
L 94.938053 118.8864 
L 96.284795 136.6272 
L 96.733709 131.7888 
L 97.182623 130.176 
L 97.631537 122.112 
L 98.080451 141.4656 
L 99.427192 126.9504 
L 99.876106 130.176 
L 100.32502 120.4992 
L 100.773934 131.7888 
L 101.222848 131.7888 
L 102.56959 139.8528 
L 103.018504 135.0144 
L 103.467418 151.1424 
L 103.916331 162.432 
L 104.365245 162.432 
L 105.711987 157.5936 
L 106.160901 159.2064 
L 106.609815 170.496 
L 107.058729 152.7552 
L 107.507643 164.0448 
L 108.854385 180.1728 
L 109.303298 178.56 
L 109.752212 185.0112 
L 110.201126 173.7216 
L 110.65004 165.6576 
L 113.343524 168.8832 
L 113.792438 185.0112 
L 115.139179 207.5904 
L 116.037007 207.5904 
L 116.485921 217.2672 
L 116.934835 238.2336 
L 118.281577 243.072 
L 118.730491 231.7824 
L 119.179405 228.5568 
L 119.628319 218.88 
L 120.526146 212.0256 
L 121.872888 201.1392 
L 122.321802 207.5904 
L 122.770716 199.5264 
L 123.21963 199.5264 
L 124.566372 197.9136 
L 125.015286 205.9776 
L 125.4642 201.1392 
L 125.913113 197.9136 
L 126.362027 204.3648 
L 127.708769 194.688 
L 128.157683 202.752 
L 128.606597 202.752 
L 129.055511 207.5904 
L 129.504425 193.0752 
L 130.851167 207.5904 
L 131.748994 201.1392 
L 132.197908 205.9776 
L 132.646822 215.6544 
L 133.993564 218.88 
L 134.442478 233.3952 
L 134.891392 230.1696 
L 135.340306 215.6544 
L 135.78922 217.2672 
L 137.135961 210.816 
L 137.584875 207.5904 
L 138.033789 210.816 
L 138.931617 228.5568 
L 140.727273 238.2336 
L 141.176187 231.7824 
L 141.625101 238.2336 
L 142.074014 251.136 
L 143.420756 228.5568 
L 143.86967 215.6544 
L 144.318584 209.2032 
L 144.767498 176.9472 
L 145.216412 181.7856 
L 146.563154 178.56 
L 147.012068 178.56 
L 147.460981 185.0112 
L 147.909895 194.688 
L 148.358809 178.56 
L 150.154465 186.624 
L 150.603379 176.9472 
L 151.052293 176.9472 
L 151.501207 180.1728 
L 152.847949 183.3984 
L 153.296862 170.496 
L 154.19469 155.9808 
L 154.643604 162.432 
L 155.990346 160.8192 
L 156.43926 155.9808 
L 156.888174 157.5936 
L 159.132743 155.9808 
L 159.581657 169.6896 
L 160.030571 154.368 
L 160.479485 162.432 
L 160.928399 144.6912 
L 162.724055 119.6928 
L 163.172969 129.3696 
L 164.070796 105.984 
L 165.417538 107.5968 
L 165.866452 115.6608 
L 166.315366 121.3056 
L 166.76428 107.5968 
L 167.213194 129.3696 
L 168.559936 143.0784 
L 169.00885 159.2064 
L 169.906677 209.2032 
L 170.355591 220.4928 
L 171.702333 226.944 
L 172.151247 201.9456 
L 172.600161 235.008 
L 173.049075 254.3616 
L 173.497989 248.7168 
L 174.84473 254.3616 
L 175.293644 239.04 
L 175.742558 236.6208 
L 176.640386 225.3312 
L 177.987128 242.2656 
L 178.436042 238.2336 
L 178.884956 238.2336 
L 179.33387 241.4592 
L 179.782784 251.136 
L 181.129525 244.6848 
L 181.578439 247.104 
L 182.027353 255.168 
L 182.476267 255.9744 
L 182.925181 246.2976 
L 184.271923 251.9424 
L 184.720837 248.7168 
L 185.169751 231.7824 
L 185.618665 239.04 
L 186.067578 235.8144 
L 187.41432 216.4608 
L 187.863234 219.6864 
L 188.312148 227.7504 
L 189.209976 222.912 
L 190.556718 218.0736 
L 191.005632 210.816 
L 191.454545 205.9776 
L 191.903459 214.0416 
L 192.352373 202.752 
L 194.148029 193.0752 
L 194.596943 184.2048 
L 195.045857 185.8176 
L 195.494771 176.9472 
L 196.841512 180.1728 
L 197.290426 175.3344 
L 198.188254 183.3984 
L 198.637168 174.528 
L 199.98391 168.0768 
L 200.432824 174.528 
L 200.881738 176.9472 
L 201.330652 188.2368 
L 201.779566 185.8176 
L 203.126307 182.592 
L 203.575221 185.8176 
L 204.024135 180.1728 
L 204.473049 185.0112 
L 204.921963 187.4304 
L 206.268705 198.72 
L 206.717619 197.1072 
L 207.166533 194.688 
L 207.615447 202.752 
L 208.06436 207.5904 
L 209.411102 188.2368 
L 209.860016 187.4304 
L 210.30893 197.1072 
L 211.206758 192.2688 
L 213.900241 210.816 
L 214.349155 222.1056 
L 215.695897 215.6544 
L 216.144811 219.6864 
L 216.593725 204.3648 
L 217.042639 202.752 
L 217.491553 214.0416 
L 219.287208 214.0416 
L 219.736122 217.2672 
L 220.185036 231.7824 
L 220.63395 242.2656 
L 221.980692 240.6528 
L 222.87852 260.8128 
L 223.327434 255.168 
L 223.776348 251.136 
L 225.123089 254.3616 
L 225.572003 256.7808 
L 226.020917 261.6192 
L 226.469831 243.072 
L 226.918745 243.8784 
L 228.265487 265.6512 
L 228.714401 267.264 
L 229.163315 273.7152 
L 229.612228 270.4896 
L 230.061142 264.8448 
L 231.407884 258.3936 
L 232.305712 246.2976 
L 232.754626 251.9424 
L 233.20354 260.8128 
L 234.550282 251.9424 
L 234.999195 255.168 
L 235.448109 264.0384 
L 235.897023 268.0704 
L 236.345937 277.7472 
L 237.692679 283.392 
L 238.141593 286.6176 
L 238.590507 286.6176 
L 239.039421 297.9072 
L 239.488335 296.2944 
L 240.835076 293.8752 
L 241.28399 287.424 
L 241.732904 291.456 
L 242.181818 278.5536 
L 242.630732 280.1664 
L 243.977474 280.1664 
L 244.426388 279.36 
L 244.875302 259.2 
L 245.324216 271.296 
L 245.77313 277.7472 
L 247.568785 290.6496 
L 248.017699 294.6816 
L 248.466613 293.8752 
L 248.915527 285.8112 
L 250.262269 285.0048 
L 250.711183 293.0688 
L 251.160097 286.6176 
L 251.60901 288.2304 
L 252.057924 291.456 
L 253.404666 282.5856 
L 253.85358 276.9408 
L 254.302494 285.0048 
L 254.751408 282.5856 
L 255.200322 280.9728 
L 256.547064 288.2304 
L 256.995977 287.424 
L 257.444891 296.2944 
L 257.893805 294.6816 
L 258.342719 294.6816 
L 259.689461 295.488 
L 260.138375 298.7136 
L 260.587289 294.6816 
L 261.036203 285.8112 
L 261.485117 294.6816 
L 262.831858 298.7136 
L 263.280772 302.7456 
L 263.729686 314.0352 
L 264.1786 311.13216 
L 264.627514 309.03552 
L 265.974256 310.8096 
L 266.42317 322.0992 
L 266.872084 322.58304 
L 267.320998 323.712 
L 267.769912 314.19648 
L 269.116653 306.7776 
L 269.565567 309.84192 
L 270.014481 319.68 
L 270.463395 310.8096 
L 270.912309 307.42272 
L 272.259051 307.90656 
L 272.707965 315.80928 
L 273.156879 297.9072 
L 273.605792 289.8432 
L 274.054706 285.8112 
L 275.850362 288.2304 
L 276.299276 293.0688 
L 277.646018 287.9616 
L 278.543846 284.1984 
L 278.992759 287.424 
L 279.441673 287.424 
L 279.890587 299.84256 
L 280.339501 302.26176 
L 281.686243 305.64864 
L 282.135157 303.552 
L 282.584071 307.26144 
L 283.032985 307.10016 
L 283.481899 316.4544 
L 285.277554 323.55072 
L 285.726468 324.35712 
L 286.175382 310.8096 
L 286.624296 316.61568 
L 287.971038 310.97088 
L 288.419952 311.45472 
L 288.868866 317.58336 
L 289.31778 315.648 
L 289.766693 311.45472 
L 291.113435 316.77696 
L 291.562349 321.13152 
L 292.011263 314.0352 
L 292.909091 322.26048 
L 294.255833 329.84064 
L 295.602574 314.0352 
L 296.051488 305.32608 
L 297.39823 299.68128 
L 297.847144 301.77792 
L 298.744972 280.9728 
L 299.193886 284.1984 
L 301.438455 272.1024 
L 302.336283 256.7808 
L 303.683025 251.136 
L 304.580853 255.9744 
L 305.029767 250.3296 
L 305.478681 252.7488 
L 306.825422 251.136 
L 307.274336 264.0384 
L 307.72325 249.5232 
L 308.172164 252.7488 
L 308.621078 255.168 
L 309.96782 255.168 
L 310.416734 258.3936 
L 310.865648 254.3616 
L 311.314562 255.168 
L 311.763475 262.4256 
L 313.110217 259.2 
L 313.559131 257.5872 
L 314.008045 252.7488 
L 314.456959 253.5552 
L 314.905873 258.3936 
L 316.252615 262.4256 
L 316.701529 259.2 
L 317.599356 262.0224 
L 318.04827 263.232 
L 319.395012 262.4256 
L 319.843926 263.232 
L 320.29284 259.2 
L 320.741754 264.0384 
L 322.986323 256.7808 
L 323.435237 251.9424 
L 324.333065 226.1376 
L 326.128721 226.1376 
L 327.026549 213.2352 
L 327.475463 210.816 
L 328.822204 218.88 
L 329.271118 217.2672 
L 329.720032 221.2992 
L 330.168946 227.7504 
L 330.61786 239.8464 
L 331.964602 232.5888 
L 332.413516 224.5248 
L 332.86243 235.008 
L 333.311344 228.5568 
L 333.760257 236.6208 
L 335.106999 235.008 
L 335.555913 239.8464 
L 336.004827 222.1056 
L 336.453741 228.5568 
L 336.902655 225.3312 
L 338.249397 220.4928 
L 338.698311 220.4928 
L 339.147224 191.4624 
L 339.596138 174.528 
L 341.391794 159.2064 
L 341.840708 152.7552 
L 342.289622 153.5616 
L 342.738536 152.7552 
L 343.18745 156.7872 
L 344.534191 153.5616 
L 344.983105 169.6896 
L 345.880933 190.656 
L 346.329847 177.7536 
L 347.676589 167.2704 
L 348.125503 161.6256 
L 348.574417 179.3664 
L 349.023331 180.1728 
L 349.472245 172.9152 
L 350.818986 187.4304 
L 351.2679 186.624 
L 351.716814 184.2048 
L 352.614642 203.5584 
L 353.961384 249.5232 
L 354.410298 289.0368 
L 354.859212 243.8784 
L 355.308126 255.9744 
L 355.757039 264.8448 
L 357.552695 243.8784 
L 358.001609 250.3296 
L 358.450523 264.8448 
L 358.899437 255.168 
L 360.246179 251.9424 
L 360.695093 258.3936 
L 361.144006 246.2976 
L 361.59292 243.072 
L 362.041834 242.2656 
L 363.388576 244.6848 
L 363.83749 257.5872 
L 364.286404 256.7808 
L 364.735318 251.9424 
L 365.184232 244.6848 
L 366.530973 257.5872 
L 366.979887 260.8128 
L 367.428801 253.5552 
L 367.877715 255.9744 
L 368.326629 260.8128 
L 369.673371 263.232 
L 370.122285 279.36 
L 370.571199 272.1024 
L 371.020113 268.0704 
L 371.469027 251.9424 
L 372.815768 255.168 
L 373.264682 268.0704 
L 373.713596 269.6832 
L 374.16251 262.4256 
L 375.958166 252.7488 
L 377.753821 265.6512 
L 379.100563 268.0704 
L 379.549477 259.2 
L 379.998391 255.9744 
L 380.447305 239.8464 
L 380.896219 235.008 
L 382.242961 244.6848 
L 382.691874 250.3296 
L 383.140788 249.5232 
L 383.589702 251.136 
L 384.038616 254.3616 
L 385.385358 257.5872 
L 385.834272 260.0064 
L 386.283186 248.7168 
L 386.7321 242.2656 
L 387.181014 245.4912 
L 388.527755 246.2976 
L 388.976669 235.008 
L 389.425583 238.2336 
L 389.874497 255.9744 
L 390.323411 262.4256 
L 391.670153 264.8448 
L 392.119067 253.5552 
L 392.567981 252.7488 
L 393.016895 255.9744 
L 393.465809 251.136 
L 394.81255 264.0384 
L 395.261464 262.4256 
L 395.710378 259.2 
L 396.159292 268.0704 
L 396.608206 271.296 
L 397.954948 271.296 
L 398.852776 260.8128 
L 399.301689 259.2 
L 399.750603 253.5552 
L 401.097345 265.6512 
L 401.546259 264.8448 
L 401.995173 255.9744 
L 402.893001 245.4912 
L 404.239743 237.4272 
L 404.688656 236.6208 
L 405.13757 230.976 
L 405.586484 235.008 
L 406.035398 227.7504 
L 407.38214 231.7824 
L 407.831054 242.2656 
L 408.279968 240.6528 
L 408.728882 244.6848 
L 409.177796 246.2976 
L 410.973451 250.3296 
L 411.422365 247.104 
L 411.871279 249.5232 
L 412.320193 245.4912 
L 413.666935 252.7488 
L 414.115849 251.9424 
L 414.564763 258.3936 
L 415.013677 269.6832 
L 415.462591 274.5216 
L 416.809332 272.1024 
L 417.258246 273.7152 
L 417.70716 280.1664 
L 418.156074 276.9408 
L 418.604988 293.0688 
L 419.95173 300.64896 
L 420.400644 309.68064 
L 420.849558 314.0352 
L 421.298471 323.55072 
L 421.747385 328.71168 
L 423.094127 315.48672 
L 423.543041 315.80928 
L 424.889783 336.93696 
L 426.236525 347.904 
L 426.685438 337.74336 
L 427.134352 345.00096 
L 427.583266 337.58208 
L 428.03218 336.93696 
L 429.378922 345.4848 
L 429.827836 344.51712 
L 430.27675 342.42048 
L 430.725664 339.19488 
L 431.174578 346.12992 
L 432.521319 357.5808 
L 432.970233 363.2256 
L 433.419147 351.1296 
L 433.868061 347.904 
L 435.214803 357.0432 
L 435.663717 360 
L 436.112631 356.12928 
L 436.561545 358.54848 
L 437.459372 342.42048 
L 439.703942 352.41984 
L 440.152856 359.51616 
L 441.948512 366.77376 
L 442.397426 354.3552 
L 442.84634 351.45216 
L 443.295253 347.58144 
L 443.744167 349.83936 
L 445.090909 358.3872 
L 445.988737 377.41824 
L 446.437651 374.03136 
L 448.233307 367.29792 
L 448.68222 365.6448 
L 449.131134 366.93504 
L 449.580048 364.032 
L 450.028962 371.12832 
L 451.375704 359.35488 
L 451.824618 367.41888 
L 452.273532 367.2576 
L 452.722446 371.2896 
L 453.17136 372.57984 
L 454.518101 367.2576 
L 454.967015 374.35392 
L 455.415929 375.64416 
L 456.313757 358.87104 
L 457.660499 356.93568 
L 458.109413 364.67712 
L 458.558327 379.3536 
L 459.456154 371.77344 
L 460.802896 372.74112 
L 461.25181 379.67616 
L 461.700724 373.38624 
L 462.598552 387.57888 
L 463.945294 382.90176 
L 464.394208 384.83712 
L 464.843121 385.48224 
L 465.292035 379.3536 
L 465.740949 388.54656 
L 467.087691 398.7072 
L 467.536605 398.38464 
L 468.434433 400.15872 
L 468.883347 394.19136 
L 470.230088 382.90176 
L 470.679002 375.48288 
L 471.127916 378.70848 
L 471.57683 369.35424 
L 472.474658 361.29024 
L 473.372486 353.87136 
L 473.8214 363.06432 
L 474.270314 352.41984 
L 474.719228 356.45184 
L 475.168142 358.22592 
L 476.514883 361.29024 
L 476.963797 366.12864 
L 477.412711 367.58016 
L 477.861625 372.74112 
L 478.310539 380.48256 
L 479.657281 382.25664 
L 480.106195 384.03072 
L 480.555109 378.38592 
L 481.004023 380.80512 
L 482.799678 378.22464 
L 483.248592 379.19232 
L 483.697506 375.80544 
L 484.14642 375.3216 
L 484.595334 369.6768 
L 486.839903 356.93568 
L 487.288817 356.93568 
L 487.737731 357.90336 
L 489.533387 359.83872 
L 489.982301 359.83872 
L 490.431215 364.8384 
L 490.880129 358.06464 
L 492.22687 364.51584 
L 492.675784 364.67712 
L 493.124698 366.61248 
L 493.573612 360.64512 
L 494.022526 343.22688 
L 495.369268 344.6784 
L 496.267096 319.35744 
L 496.71601 317.74464 
L 497.164924 325.64736 
L 498.511665 333.55008 
L 498.960579 330.1632 
L 499.858407 314.68032 
L 500.307321 315.80928 
L 501.654063 301.77792 
L 502.102977 301.77792 
L 502.551891 277.7472 
L 503.000805 278.5536 
L 503.449718 289.8432 
L 504.79646 289.0368 
L 505.245374 280.1664 
L 505.694288 256.7808 
L 506.143202 256.7808 
L 507.489944 246.5664 
L 507.938858 243.072 
L 508.387772 247.9104 
L 508.836685 238.2336 
L 509.285599 239.8464 
L 509.734513 238.2336 
L 511.081255 238.2336 
L 511.530169 237.4272 
L 511.979083 242.2656 
L 512.876911 248.7168 
L 514.223652 250.3296 
L 514.672566 253.5552 
L 515.12148 260.0064 
L 516.019308 231.7824 
L 517.36605 234.2016 
L 517.814964 232.5888 
L 518.263878 221.2992 
L 518.712792 205.1712 
L 519.161706 205.9776 
L 520.508447 206.784 
L 521.406275 215.6544 
L 521.855189 213.2352 
L 522.304103 224.5248 
L 523.650845 222.912 
L 524.099759 202.752 
L 524.548673 197.1072 
L 524.997586 206.784 
L 525.4465 207.5904 
L 526.793242 208.3968 
L 527.242156 210.0096 
L 527.69107 221.2992 
L 528.139984 225.3312 
L 528.588898 236.6208 
L 529.93564 249.5232 
L 530.384553 241.4592 
L 530.833467 247.9104 
L 531.282381 246.2976 
L 531.731295 247.104 
L 533.078037 255.9744 
L 533.526951 260.8128 
L 533.975865 246.2976 
L 534.424779 241.4592 
L 534.873693 251.9424 
L 536.220434 256.7808 
L 536.669348 257.5872 
L 537.118262 254.3616 
L 537.567176 252.7488 
L 538.01609 250.3296 
L 539.811746 268.8768 
L 540.26066 266.4576 
L 542.505229 281.7792 
L 542.954143 276.1344 
L 543.403057 276.1344 
L 543.851971 272.1024 
L 544.300885 261.6192 
L 545.647627 262.4256 
L 546.545455 283.392 
L 546.994368 276.1344 
L 547.443282 294.6816 
L 548.790024 298.7136 
L 549.238938 286.6176 
L 549.687852 289.0368 
L 550.58568 289.0368 
L 551.932422 288.2304 
L 552.381335 286.6176 
L 552.830249 287.424 
L 555.074819 315.00288 
L 555.523733 311.45472 
L 556.421561 289.8432 
L 556.870475 296.2944 
L 558.217216 288.2304 
L 558.66613 293.8752 
L 559.115044 291.456 
L 559.563958 297.1008 
L 560.012872 300.16512 
L 561.359614 290.6496 
L 561.808528 297.1008 
L 562.706356 285.8112 
L 563.15527 285.8112 
L 564.502011 286.6176 
L 564.950925 292.2624 
L 565.399839 294.6816 
L 566.297667 268.8768 
L 567.644409 271.296 
L 568.093323 264.0384 
L 568.542237 264.8448 
L 568.99115 263.232 
L 569.440064 264.8448 
L 570.786806 274.5216 
L 571.23572 284.1984 
L 571.684634 286.6176 
L 572.133548 295.488 
L 572.582462 297.9072 
L 574.378117 301.29408 
L 574.827031 299.68128 
L 575.275945 296.2944 
L 575.724859 304.84224 
L 577.071601 313.2288 
L 577.520515 318.8736 
L 577.969429 329.03424 
L 578.418343 320.80896 
L 578.867257 308.71296 
L 580.213998 306.45504 
L 580.662912 296.2944 
L 581.111826 298.7136 
L 581.56074 292.2624 
L 582.009654 289.0368 
L 583.356396 276.9408 
L 583.80531 269.6832 
L 584.254224 273.7152 
L 584.703138 266.4576 
L 585.152051 272.1024 
L 586.498793 272.9088 
L 586.947707 276.9408 
L 587.396621 275.328 
L 587.845535 259.2 
L 588.294449 255.168 
L 589.641191 260.0064 
L 590.539019 255.168 
L 590.987932 257.5872 
L 591.436846 261.6192 
L 592.783588 264.0384 
L 593.232502 270.4896 
L 594.13033 272.1024 
L 594.579244 284.1984 
L 595.925986 285.0048 
L 596.374899 286.6176 
L 596.823813 291.456 
L 597.272727 283.392 
L 597.721641 266.4576 
L 599.068383 263.232 
L 599.517297 272.1024 
L 599.966211 267.264 
L 600.415125 272.1024 
L 600.864039 264.8448 
L 602.659694 268.0704 
L 603.108608 258.3936 
L 603.557522 265.6512 
L 604.006436 267.264 
L 605.353178 275.328 
L 605.802092 269.6832 
L 606.251006 283.392 
L 606.69992 280.9728 
L 607.148833 293.0688 
L 608.495575 301.29408 
L 608.944489 300.48768 
L 609.393403 298.7136 
L 609.842317 284.1984 
L 610.291231 292.2624 
L 612.086887 299.52 
L 612.5358 308.71296 
L 612.984714 315.16416 
L 613.433628 310.16448 
L 614.78037 300.3264 
L 615.678198 289.8432 
L 616.127112 277.7472 
L 616.576026 276.9408 
L 617.922767 275.328 
L 618.371681 276.1344 
L 618.820595 284.1984 
L 619.269509 277.7472 
L 619.718423 286.6176 
L 621.514079 297.1008 
L 621.962993 289.0368 
L 622.411907 285.0048 
L 622.860821 276.9408 
L 624.207562 265.6512 
L 624.656476 260.8128 
L 625.10539 260.8128 
L 625.554304 274.5216 
L 626.452132 279.8976 
L 627.34996 285.8112 
L 627.798874 285.8112 
L 628.247788 289.8432 
L 628.696702 264.8448 
L 629.145615 247.104 
L 630.492357 239.8464 
L 630.941271 241.4592 
L 631.839099 216.4608 
L 633.634755 206.784 
L 634.532582 222.912 
L 634.981496 216.4608 
L 635.43041 213.2352 
L 637.67498 218.88 
L 638.123894 213.2352 
L 639.919549 213.2352 
L 640.368463 214.0416 
L 640.817377 209.2032 
L 641.266291 202.752 
L 641.715205 202.752 
L 643.061947 199.5264 
L 643.510861 183.3984 
L 643.959775 162.432 
L 644.408689 157.5936 
L 644.857603 172.9152 
L 646.653258 173.7216 
L 647.102172 165.6576 
L 647.551086 149.5296 
L 648 137.4336 
L 648 137.4336 
" style="fill:none;stroke:#4878cf;stroke-linecap:round;stroke-width:1.2;"/>
   </g>
   <g id="line2d_50">
    <defs>
     <path d="M 0 3.5 
C 0.928211 3.5 1.81853 3.131218 2.474874 2.474874 
C 3.131218 1.81853 3.5 0.928211 3.5 0 
C 3.5 -0.928211 3.131218 -1.81853 2.474874 -2.474874 
C 1.81853 -3.131218 0.928211 -3.5 0 -3.5 
C -0.928211 -3.5 -1.81853 -3.131218 -2.474874 -2.474874 
C -3.131218 -1.81853 -3.5 -0.928211 -3.5 0 
C -3.5 0.928211 -3.131218 1.81853 -2.474874 2.474874 
C -1.81853 3.131218 -0.928211 3.5 0 3.5 
z
" id="m2a8fca2dd7" style="stroke:#000000;stroke-width:0.5;"/>
    </defs>
    <g clip-path="url(#p71e14e7243)">
     <use style="fill:#4878cf;stroke:#000000;stroke-width:0.5;" x="130.851166533" xlink:href="#m2a8fca2dd7" y="207.5904"/>
    </g>
   </g>
   <g id="line2d_51">
    <defs>
     <path d="M 0 3.5 
C 0.928211 3.5 1.81853 3.131218 2.474874 2.474874 
C 3.131218 1.81853 3.5 0.928211 3.5 0 
C 3.5 -0.928211 3.131218 -1.81853 2.474874 -2.474874 
C 1.81853 -3.131218 0.928211 -3.5 0 -3.5 
C -0.928211 -3.5 -1.81853 -3.131218 -2.474874 -2.474874 
C -3.131218 -1.81853 -3.5 -0.928211 -3.5 0 
C -3.5 0.928211 -3.131218 1.81853 -2.474874 2.474874 
C -1.81853 3.131218 -0.928211 3.5 0 3.5 
z
" id="m39b5fb1d6b" style="stroke:#000000;stroke-width:0.5;"/>
    </defs>
    <g clip-path="url(#p71e14e7243)">
     <use style="fill:#6acc65;stroke:#000000;stroke-width:0.5;" x="166.764279968" xlink:href="#m39b5fb1d6b" y="107.5968"/>
    </g>
   </g>
   <g id="line2d_52">
    <defs>
     <path d="M 0 3.5 
C 0.928211 3.5 1.81853 3.131218 2.474874 2.474874 
C 3.131218 1.81853 3.5 0.928211 3.5 0 
C 3.5 -0.928211 3.131218 -1.81853 2.474874 -2.474874 
C 1.81853 -3.131218 0.928211 -3.5 0 -3.5 
C -0.928211 -3.5 -1.81853 -3.131218 -2.474874 -2.474874 
C -3.131218 -1.81853 -3.5 -0.928211 -3.5 0 
C -3.5 0.928211 -3.131218 1.81853 -2.474874 2.474874 
C -1.81853 3.131218 -0.928211 3.5 0 3.5 
z
" id="me64a274a7b" style="stroke:#000000;stroke-width:0.5;"/>
    </defs>
    <g clip-path="url(#p71e14e7243)">
     <use style="fill:#d65f5f;stroke:#000000;stroke-width:0.5;" x="294.255832663" xlink:href="#me64a274a7b" y="329.84064"/>
    </g>
   </g>
   <g id="line2d_53">
    <defs>
     <path d="M 0 3.5 
C 0.928211 3.5 1.81853 3.131218 2.474874 2.474874 
C 3.131218 1.81853 3.5 0.928211 3.5 0 
C 3.5 -0.928211 3.131218 -1.81853 2.474874 -2.474874 
C 1.81853 -3.131218 0.928211 -3.5 0 -3.5 
C -0.928211 -3.5 -1.81853 -3.131218 -2.474874 -2.474874 
C -3.131218 -1.81853 -3.5 -0.928211 -3.5 0 
C -3.5 0.928211 -3.131218 1.81853 -2.474874 2.474874 
C -1.81853 3.131218 -0.928211 3.5 0 3.5 
z
" id="m54c74bf5b7" style="stroke:#000000;stroke-width:0.5;"/>
    </defs>
    <g clip-path="url(#p71e14e7243)">
     <use style="fill:#b47cc7;stroke:#000000;stroke-width:0.5;" x="342.289621882" xlink:href="#m54c74bf5b7" y="153.5616"/>
    </g>
   </g>
   <g id="line2d_54">
    <defs>
     <path d="M 0 3.5 
C 0.928211 3.5 1.81853 3.131218 2.474874 2.474874 
C 3.131218 1.81853 3.5 0.928211 3.5 0 
C 3.5 -0.928211 3.131218 -1.81853 2.474874 -2.474874 
C 1.81853 -3.131218 0.928211 -3.5 0 -3.5 
C -0.928211 -3.5 -1.81853 -3.131218 -2.474874 -2.474874 
C -3.131218 -1.81853 -3.5 -0.928211 -3.5 0 
C -3.5 0.928211 -3.131218 1.81853 -2.474874 2.474874 
C -1.81853 3.131218 -0.928211 3.5 0 3.5 
z
" id="m374114fc15" style="stroke:#000000;stroke-width:0.5;"/>
    </defs>
    <g clip-path="url(#p71e14e7243)">
     <use style="fill:#c4ad66;stroke:#000000;stroke-width:0.5;" x="456.313757039" xlink:href="#m374114fc15" y="358.87104"/>
    </g>
   </g>
   <g id="patch_3">
    <path d="M 90 460.8 
L 90 57.6 
" style="fill:none;"/>
   </g>
   <g id="patch_4">
    <path d="M 648 460.8 
L 648 57.6 
" style="fill:none;"/>
   </g>
   <g id="patch_5">
    <path d="M 90 460.8 
L 648 460.8 
" style="fill:none;"/>
   </g>
   <g id="patch_6">
    <path d="M 90 57.6 
L 648 57.6 
" style="fill:none;"/>
   </g>
   <g id="patch_7">
    <path d="M 130.851167 248.700119 
Q 130.851167 230.645615 130.851167 213.932753 
" style="fill:none;stroke:#000000;stroke-linecap:round;stroke-width:1.2;"/>
    <path d="M 128.851167 217.932753 
L 130.851167 213.932753 
L 132.851167 217.932753 
L 128.851167 217.932753 
z
" style="stroke:#000000;stroke-linecap:round;stroke-width:1.2;"/>
   </g>
   <g id="text_17">
    <!--   -->
    <defs>
     <path d="M 80.5 -12.59375 
Q 80.5 -14 79.09375 -14 
L 75 -14 
Q 73.59375 -14 73.59375 -12.59375 
L 73.59375 76.796875 
Q 73.59375 78.203125 75 78.203125 
L 79.09375 78.203125 
Q 80.5 78.203125 80.5 76.796875 
L 80.5 -12.59375 
z
M 18.90625 8.59375 
Q 14.40625 8.796875 12.84375 10.4375 
Q 11.296875 12.09375 11.296875 16.296875 
L 11.296875 36.203125 
Q 11.296875 40.40625 13.046875 41.84375 
Q 14.796875 43.296875 19.296875 43.296875 
L 44.5 43.296875 
Q 45.90625 43.296875 46.296875 43.6875 
Q 46.703125 44.09375 46.703125 45.59375 
L 46.703125 62.40625 
Q 46.703125 63.90625 46.34375 64.296875 
Q 46 64.703125 44.59375 64.703125 
L 13.09375 64.703125 
Q 12.59375 64.703125 12.140625 65 
Q 11.703125 65.296875 11.703125 65.796875 
L 11.703125 69.59375 
Q 11.703125 70.09375 12.140625 70.390625 
Q 12.59375 70.703125 13.09375 70.703125 
L 45.703125 70.703125 
Q 48.09375 70.703125 49.59375 70.34375 
Q 51.09375 70 52 69.203125 
Q 52.90625 68.40625 53.25 66.953125 
Q 53.59375 65.5 53.59375 63.40625 
L 53.59375 44.40625 
Q 53.59375 40.203125 51.84375 38.75 
Q 50.09375 37.296875 45.59375 37.296875 
L 20.296875 37.296875 
Q 18.90625 37.296875 18.546875 36.890625 
Q 18.203125 36.5 18.203125 35 
L 18.203125 16.796875 
Q 18.203125 14.5 20.40625 14.5 
Q 32.296875 14.296875 43.25 15.390625 
Q 54.203125 16.5 64.5 18.796875 
Q 65.90625 19.09375 66.203125 17.796875 
L 66.796875 14.5 
Q 67.09375 13.203125 65.5 12.796875 
Q 60.203125 11.59375 54.34375 10.75 
Q 48.5 9.90625 42.453125 9.34375 
Q 36.40625 8.796875 30.40625 8.59375 
Q 24.40625 8.40625 18.90625 8.59375 
" id="NanumGothic-b9ac"/>
     <path d="M 63.59375 35.90625 
Q 63.90625 34.59375 62.40625 34.203125 
Q 59.09375 33.40625 53.640625 32.59375 
Q 48.203125 31.796875 42 31.1875 
Q 35.796875 30.59375 29.546875 30.25 
Q 23.296875 29.90625 18.40625 30 
Q 13.90625 30.09375 12.25 32.09375 
Q 10.59375 34.09375 10.59375 38.296875 
L 10.59375 66.40625 
Q 10.59375 70.59375 12.1875 72 
Q 13.796875 73.40625 18.203125 73.40625 
L 52.296875 73.40625 
Q 53.59375 73.40625 53.59375 72.203125 
L 53.59375 68.59375 
Q 53.59375 67.40625 52.296875 67.40625 
L 19.5 67.40625 
Q 18.09375 67.40625 17.796875 67.046875 
Q 17.5 66.703125 17.5 65.203125 
L 17.5 38.796875 
Q 17.5 37.296875 18 36.75 
Q 18.5 36.203125 19.90625 36.203125 
Q 30.203125 36.09375 40.953125 37.140625 
Q 51.703125 38.203125 61.09375 40 
Q 62.09375 40.203125 62.4375 39.890625 
Q 62.796875 39.59375 63 39 
z
M 18.703125 18.203125 
Q 18.703125 18.796875 19.203125 19.09375 
Q 19.703125 19.40625 20.203125 19.40625 
L 69.40625 19.40625 
Q 74.09375 19.40625 75.546875 17.65625 
Q 77 15.90625 77 11.796875 
L 77 -13 
Q 77 -14.40625 75.59375 -14.40625 
L 71.5 -14.40625 
Q 70.09375 -14.40625 70.09375 -13 
L 70.09375 11.296875 
Q 70.09375 12.703125 69.640625 13.046875 
Q 69.203125 13.40625 67.796875 13.40625 
L 20.203125 13.40625 
Q 19.703125 13.40625 19.203125 13.75 
Q 18.703125 14.09375 18.703125 14.59375 
L 18.703125 18.203125 
z
M 77 26.40625 
Q 77 25 75.59375 25 
L 71.5 25 
Q 70.09375 25 70.09375 26.40625 
L 70.09375 76.796875 
Q 70.09375 78.203125 71.5 78.203125 
L 75.59375 78.203125 
Q 77 78.203125 77 76.796875 
L 77 52.59375 
L 90.796875 52.59375 
Q 91.40625 52.59375 91.84375 52.25 
Q 92.296875 51.90625 92.296875 51.296875 
L 92.296875 47.90625 
Q 92.296875 47.40625 91.84375 47 
Q 91.40625 46.59375 90.796875 46.59375 
L 77 46.59375 
L 77 26.40625 
z
" id="NanumGothic-b2e5"/>
     <path d="M 17.203125 12.203125 
Q 14.796875 12.203125 13.34375 12.5 
Q 11.90625 12.796875 11.09375 13.640625 
Q 10.296875 14.5 10 15.84375 
Q 9.703125 17.203125 9.703125 19.296875 
L 9.703125 71.90625 
Q 9.703125 72.40625 10.09375 72.75 
Q 10.5 73.09375 11 73.09375 
L 15.296875 73.09375 
Q 15.796875 73.09375 16.140625 72.6875 
Q 16.5 72.296875 16.5 71.90625 
L 16.5 48.703125 
L 46.203125 48.703125 
L 46.203125 71.796875 
Q 46.203125 72.296875 46.546875 72.6875 
Q 46.90625 73.09375 47.40625 73.09375 
L 51.703125 73.09375 
Q 52.203125 73.09375 52.59375 72.75 
Q 53 72.40625 53 71.90625 
L 53 18.59375 
Q 53 14.796875 51.390625 13.5 
Q 49.796875 12.203125 45.40625 12.203125 
z
M 16.5 42.796875 
L 16.5 20.5 
Q 16.5 19 17 18.546875 
Q 17.5 18.09375 18.90625 18.09375 
L 43.796875 18.09375 
Q 45.203125 18.09375 45.703125 18.546875 
Q 46.203125 19 46.203125 20.5 
L 46.203125 42.796875 
z
M 77 -12.59375 
Q 77 -14 75.59375 -14 
L 71.5 -14 
Q 70.09375 -14 70.09375 -12.59375 
L 70.09375 76.796875 
Q 70.09375 78.203125 71.5 78.203125 
L 75.59375 78.203125 
Q 77 78.203125 77 76.796875 
L 77 40.40625 
L 90.796875 40.40625 
Q 91.40625 40.40625 91.84375 40.046875 
Q 92.296875 39.703125 92.296875 39.09375 
L 92.296875 35.703125 
Q 92.296875 35.203125 91.84375 34.796875 
Q 91.40625 34.40625 90.796875 34.40625 
L 77 34.40625 
L 77 -12.59375 
z
" id="NanumGothic-bc14"/>
     <path d="M 7.59375 63.09375 
Q 7.59375 67.296875 9.1875 68.75 
Q 10.796875 70.203125 15.203125 70.203125 
L 38.5 70.203125 
Q 40.90625 70.203125 42.34375 69.890625 
Q 43.796875 69.59375 44.640625 68.796875 
Q 45.5 68 45.796875 66.59375 
Q 46.09375 65.203125 46.09375 63.09375 
L 46.09375 19.59375 
Q 46.09375 15.40625 44.5 13.953125 
Q 42.90625 12.5 38.5 12.5 
L 15.203125 12.5 
Q 12.796875 12.5 11.34375 12.796875 
Q 9.90625 13.09375 9.046875 13.9375 
Q 8.203125 14.796875 7.890625 16.140625 
Q 7.59375 17.5 7.59375 19.59375 
z
M 64.5 40.40625 
L 77.203125 40.40625 
L 77.203125 76.796875 
Q 77.203125 78.203125 78.59375 78.203125 
L 82.40625 78.203125 
Q 83.796875 78.203125 83.796875 76.796875 
L 83.796875 -12.59375 
Q 83.796875 -14 82.40625 -14 
L 78.59375 -14 
Q 77.203125 -14 77.203125 -12.59375 
L 77.203125 34.40625 
L 64.5 34.40625 
L 64.5 -8.796875 
Q 64.5 -10.203125 63.09375 -10.203125 
L 59.296875 -10.203125 
Q 57.90625 -10.203125 57.90625 -8.796875 
L 57.90625 75.09375 
Q 57.90625 76.5 59.296875 76.5 
L 63.09375 76.5 
Q 64.5 76.5 64.5 75.09375 
z
M 16.90625 64.203125 
Q 15.5 64.203125 15 63.640625 
Q 14.5 63.09375 14.5 61.59375 
L 14.5 21.09375 
Q 14.5 19.59375 15 19.046875 
Q 15.5 18.5 16.90625 18.5 
L 36.796875 18.5 
Q 38.203125 18.5 38.703125 19.046875 
Q 39.203125 19.59375 39.203125 21.09375 
L 39.203125 61.59375 
Q 39.203125 63.09375 38.703125 63.640625 
Q 38.203125 64.203125 36.796875 64.203125 
z
" id="NanumGothic-b9e4"/>
     <path d="M 78.59375 27.59375 
Q 78.59375 26.203125 77.296875 26.203125 
L 23.296875 26.203125 
Q 18.90625 26.203125 17.296875 27.640625 
Q 15.703125 29.09375 15.703125 33.296875 
L 15.703125 65.796875 
Q 15.703125 70 17.296875 71.453125 
Q 18.90625 72.90625 23.296875 72.90625 
L 76.59375 72.90625 
Q 77.90625 72.90625 77.90625 71.59375 
L 77.90625 68.296875 
Q 77.90625 66.90625 76.59375 66.90625 
L 25 66.90625 
Q 23.59375 66.90625 23.09375 66.34375 
Q 22.59375 65.796875 22.59375 64.296875 
L 22.59375 52.5 
L 75.203125 52.5 
Q 76.59375 52.5 76.59375 51.40625 
L 76.59375 48 
Q 76.59375 46.703125 75.296875 46.703125 
L 22.59375 46.703125 
L 22.59375 34.796875 
Q 22.59375 33.40625 23.09375 32.796875 
Q 23.59375 32.203125 25 32.203125 
L 77.296875 32.203125 
Q 78.59375 32.203125 78.59375 30.90625 
L 78.59375 27.59375 
z
M 89.5 7.796875 
Q 90 7.796875 90.5 7.4375 
Q 91 7.09375 91 6.5 
L 91 3.09375 
Q 91 2.59375 90.5 2.1875 
Q 90 1.796875 89.5 1.796875 
L 4.5 1.796875 
Q 3.90625 1.796875 3.453125 2.1875 
Q 3 2.59375 3 3.09375 
L 3 6.5 
Q 3 7.09375 3.453125 7.4375 
Q 3.90625 7.796875 4.5 7.796875 
L 89.5 7.796875 
z
" id="NanumGothic-d2b8"/>
     <path d="M 79 -12.203125 
Q 79 -12.703125 78.546875 -13.046875 
Q 78.09375 -13.40625 77.703125 -13.40625 
L 24.5 -13.40625 
Q 19.796875 -13.40625 18.34375 -11.65625 
Q 16.90625 -9.90625 16.90625 -5.703125 
L 16.90625 0.90625 
Q 16.90625 5.09375 18.65625 6.546875 
Q 20.40625 8 24.90625 8 
L 67.90625 8 
Q 69.296875 8 69.6875 8.390625 
Q 70.09375 8.796875 70.09375 10.296875 
L 70.09375 15.296875 
Q 70.09375 16.796875 69.75 17.1875 
Q 69.40625 17.59375 68 17.59375 
L 18.09375 17.59375 
Q 17.59375 17.59375 17.140625 17.890625 
Q 16.703125 18.203125 16.703125 18.703125 
L 16.703125 22.203125 
Q 16.703125 22.703125 17.140625 23 
Q 17.59375 23.296875 18.09375 23.296875 
L 69 23.296875 
Q 71.40625 23.296875 72.90625 22.9375 
Q 74.40625 22.59375 75.296875 21.796875 
Q 76.203125 21 76.546875 19.546875 
Q 76.90625 18.09375 76.90625 16 
L 76.90625 9.40625 
Q 76.90625 5.203125 75.15625 3.75 
Q 73.40625 2.296875 68.90625 2.296875 
L 25.796875 2.296875 
Q 24.40625 2.296875 24.046875 1.890625 
Q 23.703125 1.5 23.703125 0 
L 23.703125 -5.296875 
Q 23.703125 -6.703125 24.09375 -7.140625 
Q 24.5 -7.59375 25.90625 -7.59375 
L 77.59375 -7.59375 
Q 78.09375 -7.59375 78.546875 -7.890625 
Q 79 -8.203125 79 -8.703125 
z
M 18.59375 61.90625 
Q 20.59375 61.90625 23.640625 61.90625 
Q 26.703125 61.90625 30.25 61.90625 
Q 33.796875 61.90625 37.5 61.953125 
Q 41.203125 62 44.5 62.046875 
Q 47.796875 62.09375 50.34375 62.09375 
Q 52.90625 62.09375 54.09375 62.203125 
Q 54.703125 62.203125 56.59375 62.25 
Q 58.5 62.296875 60.953125 62.390625 
Q 63.40625 62.5 65.90625 62.59375 
Q 68.40625 62.703125 70.09375 62.796875 
Q 70.296875 64.796875 70.390625 66.546875 
Q 70.5 68.296875 70.5 69.796875 
Q 70.5 71.203125 70.046875 71.546875 
Q 69.59375 71.90625 68.203125 71.90625 
L 18 71.90625 
Q 17.5 71.90625 17 72.25 
Q 16.5 72.59375 16.5 73.09375 
L 16.5 76.703125 
Q 16.5 77.296875 17 77.59375 
Q 17.5 77.90625 18 77.90625 
L 69.703125 77.90625 
Q 72.09375 77.90625 73.546875 77.40625 
Q 75 76.90625 75.796875 75.953125 
Q 76.59375 75 76.9375 73.5 
Q 77.296875 72 77.296875 69.90625 
Q 77.40625 64 76.5 57.59375 
Q 75.59375 51.203125 74.203125 46.296875 
Q 74 45.703125 73.640625 45.203125 
Q 73.296875 44.703125 72.703125 44.796875 
L 68.703125 45.09375 
Q 67 45.203125 67.5 46.90625 
Q 68 49 68.5 51.59375 
Q 69 54.203125 69.40625 56.90625 
Q 67.703125 56.796875 65.453125 56.6875 
Q 63.203125 56.59375 61.046875 56.546875 
Q 58.90625 56.5 57.09375 56.453125 
Q 55.296875 56.40625 54.703125 56.40625 
Q 52.296875 56.296875 47.34375 56.25 
Q 42.40625 56.203125 36.90625 56.140625 
Q 31.40625 56.09375 26.34375 56.09375 
Q 21.296875 56.09375 18.59375 56.09375 
Q 17.296875 56.09375 17.296875 57.296875 
L 17.296875 60.703125 
Q 17.296875 61.90625 18.59375 61.90625 
M 45.59375 50.59375 
Q 46.09375 50.59375 46.5 50.140625 
Q 46.90625 49.703125 46.90625 49.09375 
L 46.90625 38.09375 
L 89.5 38.09375 
Q 90 38.09375 90.5 37.75 
Q 91 37.40625 91 36.796875 
L 91 33.40625 
Q 91 32.90625 90.5 32.5 
Q 90 32.09375 89.5 32.09375 
L 4.5 32.09375 
Q 3.90625 32.09375 3.453125 32.5 
Q 3 32.90625 3 33.40625 
L 3 36.796875 
Q 3 37.40625 3.453125 37.75 
Q 3.90625 38.09375 4.5 38.09375 
L 40.203125 38.09375 
L 40.203125 49.09375 
Q 40.203125 49.703125 40.546875 50.140625 
Q 40.90625 50.59375 41.5 50.59375 
L 45.59375 50.59375 
z
" id="NanumGothic-cf5c"/>
    </defs>
    <g style="fill:#262626;" transform="translate(101.251166533 260.37086875)scale(0.1 -0.1)">
     <use xlink:href="#NanumGothic-bc14"/>
     <use x="93.99998474121094" xlink:href="#NanumGothic-b2e5"/>
     <use x="187.99996948242188" xlink:href="#NanumGothic-b9e4"/>
     <use x="281.9999542236328" xlink:href="#NanumGothic-d2b8"/>
     <use x="375.99993896484375" xlink:href="#NanumGothic-20"/>
     <use x="403.9999237060547" xlink:href="#NanumGothic-b9ac"/>
     <use x="497.9999084472656" xlink:href="#NanumGothic-cf5c"/>
    </g>
   </g>
   <g id="patch_8">
    <path d="M 166.76428 66.487081 
Q 166.76428 84.541585 166.76428 101.254447 
" style="fill:none;stroke:#000000;stroke-linecap:round;stroke-width:1.2;"/>
    <path d="M 168.76428 97.254447 
L 166.76428 101.254447 
L 164.76428 97.254447 
L 168.76428 97.254447 
z
" style="stroke:#000000;stroke-linecap:round;stroke-width:1.2;"/>
   </g>
   <g id="text_18">
    <!--   -->
    <defs>
     <path d="M 79.203125 -13.09375 
Q 79.203125 -13.59375 78.75 -13.9375 
Q 78.296875 -14.296875 77.90625 -14.296875 
L 27.59375 -14.296875 
Q 22.90625 -14.296875 21.453125 -12.546875 
Q 20 -10.796875 20 -6.59375 
L 20 0.90625 
Q 20 5.09375 21.75 6.546875 
Q 23.5 8 28 8 
L 68 8 
Q 69.40625 8 69.796875 8.390625 
Q 70.203125 8.796875 70.203125 10.296875 
L 70.203125 16 
Q 70.203125 17.5 69.84375 17.890625 
Q 69.5 18.296875 68.09375 18.296875 
L 21.203125 18.296875 
Q 20.703125 18.296875 20.25 18.59375 
Q 19.796875 18.90625 19.796875 19.40625 
L 19.796875 23 
Q 19.796875 23.5 20.25 23.796875 
Q 20.703125 24.09375 21.203125 24.09375 
L 69.203125 24.09375 
Q 71.59375 24.09375 73.09375 23.75 
Q 74.59375 23.40625 75.5 22.59375 
Q 76.40625 21.796875 76.75 20.34375 
Q 77.09375 18.90625 77.09375 16.796875 
L 77.09375 9.296875 
Q 77.09375 5.09375 75.34375 3.640625 
Q 73.59375 2.203125 69.09375 2.203125 
L 29 2.203125 
Q 27.59375 2.203125 27.25 1.796875 
Q 26.90625 1.40625 26.90625 -0.09375 
L 26.90625 -6.203125 
Q 26.90625 -7.59375 27.296875 -8.046875 
Q 27.703125 -8.5 29.09375 -8.5 
L 77.796875 -8.5 
Q 78.296875 -8.5 78.75 -8.796875 
Q 79.203125 -9.09375 79.203125 -9.59375 
z
M 63.40625 40 
Q 63.59375 39 63.1875 38.59375 
Q 62.796875 38.203125 62.203125 38 
Q 58.5 37.09375 52.890625 36.296875 
Q 47.296875 35.5 41.140625 34.890625 
Q 35 34.296875 28.953125 34 
Q 22.90625 33.703125 18.40625 33.796875 
Q 13.90625 33.90625 12.25 35.90625 
Q 10.59375 37.90625 10.59375 42.09375 
L 10.59375 67.59375 
Q 10.59375 71.796875 12.1875 73.1875 
Q 13.796875 74.59375 18.203125 74.59375 
L 52.203125 74.59375 
Q 53.5 74.59375 53.5 73.40625 
L 53.5 69.796875 
Q 53.5 68.59375 52.203125 68.59375 
L 19.5 68.59375 
Q 18.09375 68.59375 17.796875 68.25 
Q 17.5 67.90625 17.5 66.40625 
L 17.5 42.59375 
Q 17.5 41.09375 18 40.59375 
Q 18.5 40.09375 19.90625 40 
Q 24.703125 39.796875 29.953125 40.046875 
Q 35.203125 40.296875 40.5 40.84375 
Q 45.796875 41.40625 51 42.15625 
Q 56.203125 42.90625 60.90625 43.796875 
Q 61.796875 44 62.25 43.796875 
Q 62.703125 43.59375 62.90625 42.703125 
z
M 77 30.796875 
Q 77 29.40625 75.59375 29.40625 
L 71.5 29.40625 
Q 70.09375 29.40625 70.09375 30.796875 
L 70.09375 76.796875 
Q 70.09375 78.203125 71.5 78.203125 
L 75.59375 78.203125 
Q 77 78.203125 77 76.796875 
L 77 56.90625 
L 90.796875 56.90625 
Q 91.40625 56.90625 91.84375 56.546875 
Q 92.296875 56.203125 92.296875 55.59375 
L 92.296875 52.203125 
Q 92.296875 51.703125 91.84375 51.296875 
Q 91.40625 50.90625 90.796875 50.90625 
L 77 50.90625 
L 77 30.796875 
z
" id="NanumGothic-b2ec"/>
     <path d="M 51.40625 21.203125 
Q 53 21.5 53.09375 20.5 
L 53.703125 17 
Q 53.90625 15.796875 52.40625 15.59375 
Q 46.90625 14.703125 41.453125 14.046875 
Q 36 13.40625 28.703125 13 
Q 23.09375 12.703125 16.75 12.640625 
Q 10.40625 12.59375 4.5 12.796875 
Q 3.90625 12.796875 3.453125 13.1875 
Q 3 13.59375 3 14.09375 
L 3 17.40625 
Q 3 18 3.453125 18.34375 
Q 3.90625 18.703125 4.5 18.703125 
Q 6.796875 18.5 9.296875 18.5 
Q 11.796875 18.5 14.40625 18.5 
L 14.40625 63.90625 
L 5.40625 63.90625 
Q 4.90625 63.90625 4.453125 64.296875 
Q 4 64.703125 4 65.296875 
L 4 68.40625 
Q 4 69 4.453125 69.390625 
Q 4.90625 69.796875 5.40625 69.796875 
L 48.203125 69.796875 
Q 49.703125 69.796875 49.703125 68.5 
L 49.703125 65.203125 
Q 49.703125 63.90625 48.203125 63.90625 
L 41.703125 63.90625 
L 41.703125 19.703125 
Q 44 19.90625 46.34375 20.296875 
Q 48.703125 20.703125 51.40625 21.203125 
M 59.5 45.59375 
L 59.5 75.09375 
Q 59.5 76.5 60.90625 76.5 
L 64.703125 76.5 
Q 66.09375 76.5 66.09375 75.09375 
L 66.09375 -8.796875 
Q 66.09375 -10.203125 64.703125 -10.203125 
L 60.90625 -10.203125 
Q 59.5 -10.203125 59.5 -8.796875 
L 59.5 39.59375 
L 48.40625 39.59375 
Q 47.09375 39.59375 47.09375 40.796875 
L 47.09375 44.40625 
Q 47.09375 45.59375 48.40625 45.59375 
z
M 28.5 18.90625 
Q 30.203125 19 31.796875 19.046875 
Q 33.40625 19.09375 34.90625 19.203125 
L 34.90625 63.90625 
L 21.203125 63.90625 
L 21.203125 18.59375 
Q 23 18.59375 24.84375 18.6875 
Q 26.703125 18.796875 28.5 18.90625 
M 83.796875 -12.59375 
Q 83.796875 -14 82.40625 -14 
L 78.59375 -14 
Q 77.203125 -14 77.203125 -12.59375 
L 77.203125 76.796875 
Q 77.203125 78.203125 78.59375 78.203125 
L 82.40625 78.203125 
Q 83.796875 78.203125 83.796875 76.796875 
z
" id="NanumGothic-d398"/>
    </defs>
    <g style="fill:#262626;" transform="translate(146.564279968 60.37726875)scale(0.1 -0.1)">
     <use xlink:href="#NanumGothic-d398"/>
     <use x="93.99998474121094" xlink:href="#NanumGothic-b2ec"/>
     <use x="187.99996948242188" xlink:href="#NanumGothic-20"/>
     <use x="215.9999542236328" xlink:href="#NanumGothic-b9ac"/>
     <use x="309.99993896484375" xlink:href="#NanumGothic-cf5c"/>
    </g>
   </g>
   <g id="patch_9">
    <path d="M 294.255833 370.950359 
Q 294.255833 352.895855 294.255833 336.182993 
" style="fill:none;stroke:#000000;stroke-linecap:round;stroke-width:1.2;"/>
    <path d="M 292.255833 340.182993 
L 294.255833 336.182993 
L 296.255833 340.182993 
L 292.255833 340.182993 
z
" style="stroke:#000000;stroke-linecap:round;stroke-width:1.2;"/>
   </g>
   <g id="text_19">
    <!--    -->
    <defs>
     <path d="M 23.40625 12.796875 
Q 23.40625 17 25 18.453125 
Q 26.59375 19.90625 31 19.90625 
L 72.90625 19.90625 
Q 75.296875 19.90625 76.75 19.59375 
Q 78.203125 19.296875 79.046875 18.5 
Q 79.90625 17.703125 80.203125 16.296875 
Q 80.5 14.90625 80.5 12.796875 
L 80.5 -6.09375 
Q 80.5 -10.296875 78.890625 -11.75 
Q 77.296875 -13.203125 72.90625 -13.203125 
L 31 -13.203125 
Q 28.59375 -13.203125 27.140625 -12.890625 
Q 25.703125 -12.59375 24.84375 -11.75 
Q 24 -10.90625 23.703125 -9.546875 
Q 23.40625 -8.203125 23.40625 -6.09375 
z
M 32.703125 13.90625 
Q 31.296875 13.90625 30.796875 13.34375 
Q 30.296875 12.796875 30.296875 11.296875 
L 30.296875 -4.59375 
Q 30.296875 -6.09375 30.796875 -6.640625 
Q 31.296875 -7.203125 32.703125 -7.203125 
L 71.203125 -7.203125 
Q 72.59375 -7.203125 73.09375 -6.640625 
Q 73.59375 -6.09375 73.59375 -4.59375 
L 73.59375 11.296875 
Q 73.59375 12.796875 73.09375 13.34375 
Q 72.59375 13.90625 71.203125 13.90625 
z
M 51.703125 65.703125 
Q 50.296875 61.59375 47.75 57.59375 
Q 45.203125 53.59375 41.703125 49.703125 
Q 45.09375 46.09375 50.09375 42.84375 
Q 55.09375 39.59375 61 37.09375 
Q 61.796875 36.796875 61.890625 36.25 
Q 62 35.703125 61.703125 35.203125 
L 59.703125 31.59375 
Q 59.40625 31.09375 58.796875 31.046875 
Q 58.203125 31 57.703125 31.203125 
Q 55.5 32.203125 52.953125 33.59375 
Q 50.40625 35 47.703125 36.796875 
Q 45 38.59375 42.34375 40.6875 
Q 39.703125 42.796875 37.40625 45.09375 
Q 31.703125 39.5 24.84375 34.890625 
Q 18 30.296875 11 27.203125 
Q 10.5 27 10 26.890625 
Q 9.5 26.796875 9.203125 27.296875 
L 7.203125 30.796875 
Q 6.90625 31.296875 7.15625 31.84375 
Q 7.40625 32.40625 7.90625 32.59375 
Q 20.796875 38.796875 29.890625 46.796875 
Q 39 54.796875 44.09375 65.296875 
Q 44.796875 66.703125 44.296875 67.296875 
Q 43.796875 67.90625 42.40625 67.90625 
L 13.09375 67.90625 
Q 11.90625 67.90625 11.90625 69.203125 
L 11.90625 72.703125 
Q 11.90625 73.90625 13.09375 73.90625 
L 45.09375 73.90625 
Q 50.296875 73.90625 51.796875 72.046875 
Q 53.296875 70.203125 51.703125 65.703125 
M 73.59375 55 
L 73.59375 76.796875 
Q 73.59375 78.203125 75 78.203125 
L 79.09375 78.203125 
Q 80.5 78.203125 80.5 76.796875 
L 80.5 27 
Q 80.5 25.59375 79.09375 25.59375 
L 75 25.59375 
Q 73.59375 25.59375 73.59375 27 
L 73.59375 49 
L 55.09375 49 
Q 53.796875 49 53.796875 50.203125 
L 53.796875 53.796875 
Q 53.796875 55 55.09375 55 
z
" id="NanumGothic-c810"/>
     <path d="M 58.796875 13.40625 
Q 58.5 12.90625 58.046875 12.796875 
Q 57.59375 12.703125 56.796875 13.296875 
Q 54.40625 15.09375 51.703125 17.4375 
Q 49 19.796875 46.390625 22.4375 
Q 43.796875 25.09375 41.296875 27.9375 
Q 38.796875 30.796875 36.703125 33.59375 
Q 31.703125 27.296875 25.296875 21.546875 
Q 18.90625 15.796875 10.703125 10.09375 
Q 10.203125 9.796875 9.703125 9.640625 
Q 9.203125 9.5 8.90625 9.90625 
L 6.5 13 
Q 6.09375 13.5 6.1875 14.046875 
Q 6.296875 14.59375 6.703125 14.90625 
Q 22.703125 26.203125 31.640625 37.796875 
Q 40.59375 49.40625 44.09375 62 
Q 44.5 63.40625 44.140625 64.046875 
Q 43.796875 64.703125 42.40625 64.703125 
L 12.09375 64.703125 
Q 10.90625 64.703125 10.90625 66 
L 10.90625 69.5 
Q 10.90625 70.703125 12.296875 70.703125 
L 45.09375 70.703125 
Q 50.296875 70.703125 51.6875 68.890625 
Q 53.09375 67.09375 51.703125 62.5 
Q 47.796875 49.703125 40.703125 39 
Q 43 35.796875 45.59375 32.6875 
Q 48.203125 29.59375 50.796875 26.84375 
Q 53.40625 24.09375 56 21.84375 
Q 58.59375 19.59375 60.90625 18.09375 
Q 61.40625 17.703125 61.40625 17.203125 
Q 61.40625 16.703125 61.09375 16.296875 
z
M 80.5 -12.59375 
Q 80.5 -14 79.09375 -14 
L 75 -14 
Q 73.59375 -14 73.59375 -12.59375 
L 73.59375 39.59375 
L 54.703125 39.59375 
Q 53.40625 39.59375 53.40625 40.796875 
L 53.40625 44.40625 
Q 53.40625 45.59375 54.703125 45.59375 
L 73.59375 45.59375 
L 73.59375 76.796875 
Q 73.59375 78.203125 75 78.203125 
L 79.09375 78.203125 
Q 80.5 78.203125 80.5 76.796875 
L 80.5 -12.59375 
z
" id="NanumGothic-c800"/>
     <path d="M 73.203125 41.09375 
Q 73.203125 37.796875 71.25 35.140625 
Q 69.296875 32.5 65.796875 30.59375 
Q 62.296875 28.703125 57.390625 27.640625 
Q 52.5 26.59375 46.703125 26.59375 
Q 40.796875 26.59375 35.9375 27.640625 
Q 31.09375 28.703125 27.59375 30.59375 
Q 24.09375 32.5 22.140625 35.140625 
Q 20.203125 37.796875 20.203125 41.09375 
Q 20.203125 44.40625 22.140625 47.046875 
Q 24.09375 49.703125 27.59375 51.59375 
Q 31.09375 53.5 35.9375 54.5 
Q 40.796875 55.5 46.703125 55.5 
Q 52.5 55.5 57.390625 54.453125 
Q 62.296875 53.40625 65.796875 51.5 
Q 69.296875 49.59375 71.25 46.9375 
Q 73.203125 44.296875 73.203125 41.09375 
M 44.59375 -13.40625 
Q 44.09375 -13.40625 43.6875 -12.953125 
Q 43.296875 -12.5 43.296875 -11.90625 
L 43.296875 15 
L 4.5 15 
Q 3.90625 15 3.453125 15.390625 
Q 3 15.796875 3 16.296875 
L 3 19.703125 
Q 3 20.296875 3.453125 20.640625 
Q 3.90625 21 4.5 21 
L 89.5 21 
Q 90 21 90.5 20.640625 
Q 91 20.296875 91 19.703125 
L 91 16.296875 
Q 91 15.796875 90.5 15.390625 
Q 90 15 89.5 15 
L 50.203125 15 
L 50.203125 -11.90625 
Q 50.203125 -12.5 49.84375 -12.953125 
Q 49.5 -13.40625 48.90625 -13.40625 
z
M 65.40625 41.09375 
Q 65.40625 43.203125 64.046875 44.796875 
Q 62.703125 46.40625 60.203125 47.453125 
Q 57.703125 48.5 54.296875 49.046875 
Q 50.90625 49.59375 46.703125 49.59375 
Q 42.5 49.59375 39.046875 49.046875 
Q 35.59375 48.5 33.140625 47.453125 
Q 30.703125 46.40625 29.296875 44.796875 
Q 27.90625 43.203125 27.90625 41.09375 
Q 27.90625 39 29.296875 37.390625 
Q 30.703125 35.796875 33.140625 34.6875 
Q 35.59375 33.59375 39.046875 33.046875 
Q 42.5 32.5 46.703125 32.5 
Q 50.90625 32.5 54.296875 33.046875 
Q 57.703125 33.59375 60.203125 34.6875 
Q 62.703125 35.796875 64.046875 37.390625 
Q 65.40625 39 65.40625 41.09375 
M 82.90625 61 
Q 82.90625 59.703125 81.40625 59.703125 
L 12.203125 59.703125 
Q 11.703125 59.703125 11.25 60.09375 
Q 10.796875 60.5 10.796875 61.09375 
L 10.796875 64.296875 
Q 10.796875 64.90625 11.25 65.296875 
Q 11.703125 65.703125 12.203125 65.703125 
L 81.40625 65.703125 
Q 82.90625 65.703125 82.90625 64.40625 
L 82.90625 61 
z
M 59.296875 78.09375 
Q 60.796875 78.09375 60.796875 76.703125 
L 60.796875 73.5 
Q 60.796875 72 59.296875 72 
L 33.59375 72 
Q 32.09375 72 32.09375 73.5 
L 32.09375 76.703125 
Q 32.09375 78.09375 33.59375 78.09375 
L 59.296875 78.09375 
z
" id="NanumGothic-d6c4"/>
    </defs>
    <g style="fill:#262626;" transform="translate(267.955832663 382.62110875)scale(0.1 -0.1)">
     <use xlink:href="#NanumGothic-b9ac"/>
     <use x="93.99998474121094" xlink:href="#NanumGothic-cf5c"/>
     <use x="187.99996948242188" xlink:href="#NanumGothic-20"/>
     <use x="215.9999542236328" xlink:href="#NanumGothic-d6c4"/>
     <use x="309.99993896484375" xlink:href="#NanumGothic-20"/>
     <use x="337.9999237060547" xlink:href="#NanumGothic-c800"/>
     <use x="431.9999084472656" xlink:href="#NanumGothic-c810"/>
    </g>
   </g>
   <g id="patch_10">
    <path d="M 342.289622 112.451881 
Q 342.289622 130.506385 342.289622 147.219247 
" style="fill:none;stroke:#000000;stroke-linecap:round;stroke-width:1.2;"/>
    <path d="M 344.289622 143.219247 
L 342.289622 147.219247 
L 340.289622 143.219247 
L 344.289622 143.219247 
z
" style="stroke:#000000;stroke-linecap:round;stroke-width:1.2;"/>
   </g>
   <g id="text_20">
    <!--    -->
    <defs>
     <path d="M 89.5 7.796875 
Q 90 7.796875 90.5 7.4375 
Q 91 7.09375 91 6.5 
L 91 3.09375 
Q 91 2.59375 90.5 2.1875 
Q 90 1.796875 89.5 1.796875 
L 4.5 1.796875 
Q 3.90625 1.796875 3.453125 2.1875 
Q 3 2.59375 3 3.09375 
L 3 6.5 
Q 3 7.09375 3.453125 7.4375 
Q 3.90625 7.796875 4.5 7.796875 
L 40.09375 7.796875 
L 40.09375 38.5 
Q 40.09375 39.09375 40.4375 39.546875 
Q 40.796875 40 41.40625 40 
L 45.703125 40 
Q 46.203125 40 46.59375 39.546875 
Q 47 39.09375 47 38.5 
L 47 7.796875 
L 89.5 7.796875 
z
M 15.59375 70.09375 
Q 15.59375 70.703125 16.09375 71 
Q 16.59375 71.296875 17.09375 71.296875 
L 70.40625 71.296875 
Q 72.796875 71.296875 74.25 70.796875 
Q 75.703125 70.296875 76.5 69.34375 
Q 77.296875 68.40625 77.59375 66.90625 
Q 77.90625 65.40625 78 63.296875 
Q 78.09375 59.203125 78 54.09375 
Q 77.90625 49 77.5 43.5 
Q 77.09375 38 76.390625 32.390625 
Q 75.703125 26.796875 74.703125 21.703125 
Q 74.59375 21.09375 74.1875 20.59375 
Q 73.796875 20.09375 73.203125 20.203125 
L 69.203125 20.5 
Q 67.5 20.59375 68 22.296875 
Q 68.90625 26.203125 69.59375 31.84375 
Q 70.296875 37.5 70.75 43.34375 
Q 71.203125 49.203125 71.34375 54.546875 
Q 71.5 59.90625 71.203125 63.203125 
Q 71 64.59375 70.640625 64.9375 
Q 70.296875 65.296875 68.90625 65.296875 
L 17.09375 65.296875 
Q 16.59375 65.296875 16.09375 65.640625 
Q 15.59375 66 15.59375 66.5 
L 15.59375 70.09375 
z
" id="NanumGothic-ace0"/>
    </defs>
    <g style="fill:#262626;" transform="translate(315.989621882 106.34206875)scale(0.1 -0.1)">
     <use xlink:href="#NanumGothic-b9ac"/>
     <use x="93.99998474121094" xlink:href="#NanumGothic-cf5c"/>
     <use x="187.99996948242188" xlink:href="#NanumGothic-20"/>
     <use x="215.9999542236328" xlink:href="#NanumGothic-d6c4"/>
     <use x="309.99993896484375" xlink:href="#NanumGothic-20"/>
     <use x="337.9999237060547" xlink:href="#NanumGothic-ace0"/>
     <use x="431.9999084472656" xlink:href="#NanumGothic-c810"/>
    </g>
   </g>
   <g id="patch_11">
    <path d="M 456.313757 317.761321 
Q 456.313757 335.815825 456.313757 352.528687 
" style="fill:none;stroke:#000000;stroke-linecap:round;stroke-width:1.2;"/>
    <path d="M 458.313757 348.528687 
L 456.313757 352.528687 
L 454.313757 348.528687 
L 458.313757 348.528687 
z
" style="stroke:#000000;stroke-linecap:round;stroke-width:1.2;"/>
   </g>
   <g id="text_21">
    <!--   -->
    <defs>
     <path d="M 54.90625 36.09375 
Q 54.90625 32.703125 53.546875 29.890625 
Q 52.203125 27.09375 49.796875 25 
Q 47.40625 22.90625 44.046875 21.546875 
Q 40.703125 20.203125 36.703125 19.796875 
L 36.703125 9.40625 
Q 40.09375 9.59375 43.796875 9.9375 
Q 47.5 10.296875 51.046875 10.75 
Q 54.59375 11.203125 57.890625 11.703125 
Q 61.203125 12.203125 63.90625 12.703125 
Q 65.5 13 65.59375 12 
L 66.203125 8.203125 
Q 66.40625 7 64.90625 6.796875 
Q 58.203125 5.703125 50.203125 4.796875 
Q 42.203125 3.90625 34.09375 3.40625 
Q 31.203125 3.203125 27.296875 3.09375 
Q 23.40625 3 19.34375 2.953125 
Q 15.296875 2.90625 11.4375 2.90625 
Q 7.59375 2.90625 4.796875 3 
Q 4.203125 3 3.75 3.390625 
Q 3.296875 3.796875 3.296875 4.296875 
L 3.296875 7.703125 
Q 3.296875 8.296875 3.75 8.640625 
Q 4.203125 9 4.796875 9 
Q 7 8.90625 10.046875 8.84375 
Q 13.09375 8.796875 16.4375 8.84375 
Q 19.796875 8.90625 23.25 8.953125 
Q 26.703125 9 29.796875 9.09375 
L 29.796875 19.703125 
Q 25.703125 20.09375 22.34375 21.4375 
Q 19 22.796875 16.59375 24.9375 
Q 14.203125 27.09375 12.84375 29.9375 
Q 11.5 32.796875 11.5 36.09375 
Q 11.5 39.796875 13.140625 42.84375 
Q 14.796875 45.90625 17.6875 48.046875 
Q 20.59375 50.203125 24.546875 51.34375 
Q 28.5 52.5 33.203125 52.5 
Q 37.796875 52.5 41.796875 51.296875 
Q 45.796875 50.09375 48.6875 47.9375 
Q 51.59375 45.796875 53.25 42.796875 
Q 54.90625 39.796875 54.90625 36.09375 
M 77 -12.59375 
Q 77 -14 75.59375 -14 
L 71.5 -14 
Q 70.09375 -14 70.09375 -12.59375 
L 70.09375 76.796875 
Q 70.09375 78.203125 71.5 78.203125 
L 75.59375 78.203125 
Q 77 78.203125 77 76.796875 
L 77 37.703125 
L 90.796875 37.703125 
Q 91.40625 37.703125 91.84375 37.34375 
Q 92.296875 37 92.296875 36.40625 
L 92.296875 33 
Q 92.296875 32.5 91.84375 32.09375 
Q 91.40625 31.703125 90.796875 31.703125 
L 77 31.703125 
L 77 -12.59375 
z
M 48.09375 36.09375 
Q 48.09375 41.203125 43.890625 43.890625 
Q 39.703125 46.59375 33.203125 46.59375 
Q 30 46.59375 27.25 45.890625 
Q 24.5 45.203125 22.5 43.890625 
Q 20.5 42.59375 19.34375 40.59375 
Q 18.203125 38.59375 18.203125 36.09375 
Q 18.203125 33.59375 19.34375 31.640625 
Q 20.5 29.703125 22.5 28.34375 
Q 24.5 27 27.25 26.25 
Q 30 25.5 33.203125 25.5 
Q 39.703125 25.5 43.890625 28.296875 
Q 48.09375 31.09375 48.09375 36.09375 
M 61.296875 59 
Q 61.296875 57.703125 59.796875 57.703125 
L 6.59375 57.703125 
Q 6.09375 57.703125 5.640625 58.09375 
Q 5.203125 58.5 5.203125 59.09375 
L 5.203125 62.40625 
Q 5.203125 63 5.640625 63.390625 
Q 6.09375 63.796875 6.59375 63.796875 
L 59.796875 63.796875 
Q 61.296875 63.796875 61.296875 62.5 
L 61.296875 59 
z
M 47.203125 71.59375 
Q 47.203125 70.203125 45.703125 70.203125 
L 19.296875 70.203125 
Q 18.796875 70.203125 18.34375 70.546875 
Q 17.90625 70.90625 17.90625 71.5 
L 17.90625 74.90625 
Q 17.90625 75.5 18.296875 75.890625 
Q 18.703125 76.296875 19.203125 76.296875 
L 45.703125 76.296875 
Q 47.203125 76.296875 47.203125 74.90625 
L 47.203125 71.59375 
z
" id="NanumGothic-d654"/>
     <path d="M 26.90625 73.5 
Q 30.296875 73.5 33.6875 72.25 
Q 37.09375 71 39.9375 68.34375 
Q 42.796875 65.703125 44.75 61.546875 
Q 46.703125 57.40625 47.09375 51.59375 
L 59.5 51.59375 
L 59.5 75.09375 
Q 59.5 76.5 60.90625 76.5 
L 64.703125 76.5 
Q 66.09375 76.5 66.09375 75.09375 
L 66.09375 15 
Q 66.09375 13.59375 64.703125 13.59375 
L 60.90625 13.59375 
Q 59.5 13.59375 59.5 15 
L 59.5 45.59375 
L 47 45.59375 
Q 46.40625 40.203125 44.453125 36.296875 
Q 42.5 32.40625 39.640625 29.84375 
Q 36.796875 27.296875 33.4375 26.046875 
Q 30.09375 24.796875 26.796875 24.796875 
Q 23.203125 24.796875 19.703125 26.25 
Q 16.203125 27.703125 13.390625 30.703125 
Q 10.59375 33.703125 8.84375 38.34375 
Q 7.09375 43 7.09375 49.296875 
Q 7.09375 55.703125 8.84375 60.25 
Q 10.59375 64.796875 13.4375 67.75 
Q 16.296875 70.703125 19.796875 72.09375 
Q 23.296875 73.5 26.90625 73.5 
M 40.296875 49.296875 
Q 40.296875 53.5 39.25 56.75 
Q 38.203125 60 36.390625 62.296875 
Q 34.59375 64.59375 32.09375 65.796875 
Q 29.59375 67 26.796875 67 
Q 20.796875 67 17.390625 62.203125 
Q 14 57.40625 14 49.296875 
Q 14 45.203125 14.953125 41.890625 
Q 15.90625 38.59375 17.59375 36.25 
Q 19.296875 33.90625 21.640625 32.59375 
Q 24 31.296875 26.796875 31.296875 
Q 29.59375 31.296875 32.09375 32.546875 
Q 34.59375 33.796875 36.390625 36.140625 
Q 38.203125 38.5 39.25 41.796875 
Q 40.296875 45.09375 40.296875 49.296875 
M 86.5 -11 
Q 86.5 -11.59375 86 -11.890625 
Q 85.5 -12.203125 85 -12.203125 
L 32.09375 -12.203125 
Q 27.40625 -12.203125 25.953125 -10.390625 
Q 24.5 -8.59375 24.5 -4.5 
L 24.5 15 
Q 24.5 16.40625 25.90625 16.40625 
L 30 16.40625 
Q 31.40625 16.40625 31.40625 15 
L 31.40625 -4.09375 
Q 31.40625 -5.5 31.84375 -5.84375 
Q 32.296875 -6.203125 33.703125 -6.203125 
L 85 -6.203125 
Q 85.5 -6.203125 86 -6.546875 
Q 86.5 -6.90625 86.5 -7.40625 
L 86.5 -11 
z
M 83.796875 11.90625 
Q 83.796875 10.5 82.40625 10.5 
L 78.59375 10.5 
Q 77.203125 10.5 77.203125 11.90625 
L 77.203125 76.796875 
Q 77.203125 78.203125 78.59375 78.203125 
L 82.40625 78.203125 
Q 83.796875 78.203125 83.796875 76.796875 
z
" id="NanumGothic-c5d4"/>
     <path d="M 54.796875 52.5 
Q 52.40625 49 49.546875 45.953125 
Q 46.703125 42.90625 43.203125 40 
Q 47.40625 37.40625 52.5 35.296875 
Q 57.59375 33.203125 62.296875 32.09375 
Q 63.703125 31.796875 63.09375 30.203125 
L 61.59375 27 
Q 61 25.796875 59.5 26.296875 
Q 53.5 28.203125 48.203125 30.640625 
Q 42.90625 33.09375 37.796875 36.09375 
Q 28.203125 29.796875 13.296875 24.203125 
Q 12.40625 23.796875 12.046875 23.890625 
Q 11.703125 24 11.40625 24.5 
L 9.703125 28 
Q 9 29.203125 10.40625 29.703125 
Q 23.203125 34.296875 32.203125 39.84375 
Q 41.203125 45.40625 47.203125 52.09375 
Q 48.09375 53.09375 47.640625 53.890625 
Q 47.203125 54.703125 45.5 54.703125 
L 14.203125 54.703125 
Q 13 54.703125 13 56 
L 13 59.5 
Q 13 60.703125 14.203125 60.703125 
L 48.203125 60.703125 
Q 54.09375 60.703125 55.75 58.453125 
Q 57.40625 56.203125 54.796875 52.5 
M 80.5 -12.59375 
Q 80.5 -14 79.09375 -14 
L 75 -14 
Q 73.59375 -14 73.59375 -12.59375 
L 73.59375 76.796875 
Q 73.59375 78.203125 75 78.203125 
L 79.09375 78.203125 
Q 80.5 78.203125 80.5 76.796875 
L 80.5 -12.59375 
z
M 66.90625 12.59375 
Q 68.5 12.90625 68.59375 11.90625 
L 69.203125 8.40625 
Q 69.40625 7.203125 67.90625 7 
Q 64.40625 6.40625 60.5 5.84375 
Q 56.59375 5.296875 52.5 4.84375 
Q 48.40625 4.40625 44.203125 4 
Q 40 3.59375 36.09375 3.40625 
Q 33.203125 3.203125 29.140625 3.09375 
Q 25.09375 3 20.84375 2.953125 
Q 16.59375 2.90625 12.59375 2.90625 
Q 8.59375 2.90625 5.796875 3 
Q 5.203125 3 4.75 3.390625 
Q 4.296875 3.796875 4.296875 4.296875 
L 4.296875 7.703125 
Q 4.296875 8.296875 4.75 8.640625 
Q 5.203125 9 5.796875 9 
Q 8.09375 8.90625 11.390625 8.84375 
Q 14.703125 8.796875 18.34375 8.796875 
Q 22 8.796875 25.75 8.890625 
Q 29.5 9 32.703125 9.09375 
L 32.703125 23.40625 
Q 32.703125 24 33.046875 24.453125 
Q 33.40625 24.90625 34 24.90625 
L 38.296875 24.90625 
Q 38.796875 24.90625 39.1875 24.453125 
Q 39.59375 24 39.59375 23.40625 
L 39.59375 9.5 
Q 43.203125 9.796875 46.953125 10.140625 
Q 50.703125 10.5 54.296875 10.890625 
Q 57.90625 11.296875 61.15625 11.6875 
Q 64.40625 12.09375 66.90625 12.59375 
M 45.796875 74.703125 
Q 47.296875 74.703125 47.296875 73.296875 
L 47.296875 70.09375 
Q 47.296875 68.59375 45.796875 68.59375 
L 23.203125 68.59375 
Q 21.703125 68.59375 21.703125 70.09375 
L 21.703125 73.296875 
Q 21.703125 74.703125 23.203125 74.703125 
L 45.796875 74.703125 
z
" id="NanumGothic-cd5c"/>
    </defs>
    <g style="fill:#262626;" transform="translate(431.413757039 311.65150875)scale(0.1 -0.1)">
     <use xlink:href="#NanumGothic-c5d4"/>
     <use x="93.99998474121094" xlink:href="#NanumGothic-d654"/>
     <use x="187.99996948242188" xlink:href="#NanumGothic-20"/>
     <use x="215.9999542236328" xlink:href="#NanumGothic-cd5c"/>
     <use x="309.99993896484375" xlink:href="#NanumGothic-ace0"/>
     <use x="403.9999237060547" xlink:href="#NanumGothic-c810"/>
    </g>
   </g>
  </g>
 </g>
 <defs>
  <clipPath id="p71e14e7243">
   <rect height="403.2" width="558.0" x="90.0" y="57.6"/>
  </clipPath>
 </defs>
</svg>
